<?xml version="1.0" encoding="utf-8"?>
<!-- Generator: Adobe Illustrator 18.0.0, SVG Export Plug-In . SVG Version: 6.00 Build 0)  -->
<!DOCTYPE svg PUBLIC "-//W3C//DTD SVG 1.1//EN" "http://www.w3.org/Graphics/SVG/1.1/DTD/svg11.dtd">
<svg version="1.1" xmlns="http://www.w3.org/2000/svg" xmlns:xlink="http://www.w3.org/1999/xlink" x="0px" y="0px"
	 viewBox="0 0 1400 1400" enable-background="new 0 0 1400 1400" xml:space="preserve">
<g id="Background">
	<rect y="0" fill="#A7DCE2" width="1400" height="1400"/>
</g>
<g id="Object">
	<g>
		<g>
			<path fill="#7AC7D2" d="M1214.4,1084.7c0.6-0.7,1.3-1.4,1.9-2.2c0.4-0.4,0.7-0.8,1-1.2c0.5-0.5,0.9-1.1,1.3-1.6
				c0.4-0.4,0.7-0.9,1.1-1.3c0.6-0.7,1.1-1.5,1.7-2.2c0.5-0.6,0.9-1.2,1.3-1.8c0.4-0.5,0.7-1,1.1-1.5c0.4-0.5,0.7-1.1,1.1-1.6
				c0.3-0.4,0.6-0.9,0.9-1.4c0.8-1.2,1.6-2.4,2.3-3.7c0.1-0.2,0.2-0.4,0.4-0.6c0.4-0.6,0.8-1.3,1.1-2c0.2-0.4,0.4-0.7,0.6-1.1
				c0.4-0.7,0.8-1.4,1.1-2c0.1-0.3,0.3-0.6,0.4-0.8c0.8-1.5,1.5-3,2.3-4.5c0.1-0.1,0.1-0.2,0.2-0.4c0.4-0.8,0.7-1.6,1.1-2.3
				c0.1-0.2,0.2-0.5,0.3-0.7c1.1-2.6,2.2-5.2,3.1-7.8c0-0.1,0.1-0.2,0.1-0.3c0.3-0.9,0.6-1.7,0.9-2.6c0-0.1,0.1-0.3,0.1-0.4
				c0.9-2.7,1.7-5.4,2.4-8.2c0-0.1,0.1-0.2,0.1-0.3c0.2-0.9,0.5-1.9,0.7-2.8v0l0,0c12.5-54.5-13.4-116.5-97-139.3
				c-106.4-29-171.3,0-234.9-23.5c0,0,53,8.5,109.9-7.9c0.2,0.5,0.6,1,1,1.4c0.2,0.3,0.3,0.6,0.6,0.8c6.7,8.2,20.3,2,23.9-6.3
				c0.8-1.8,0.8-3.6,0.2-5.1c7.2-3.1,14.3-6.7,21.3-10.8c0,0,0,0,0,0c8.2,4.6,18.2-2.8,18.7-11.5c0-0.4,0-0.8-0.1-1.2
				c0.4-0.3,0.9-0.7,1.3-1c2.3-1.8,4.5-3.7,6.5-5.5c3.6-3.3,6.8-6.6,9.7-10c3.7,0.1,7.3-1.3,10.1-4.2c3.4-3.7,4.1-9.6,2-14.1
				c3.6-7.4,5.9-14.9,7-22.3c1.1-0.4,2.2-1.3,2.8-2.2c3.6-5.3,3.8-12.2,0.5-17.7c-0.8-1.3-2-2-3.2-2.1c-0.8-5.8-2.2-11.4-4.1-16.9
				c2.8-5.5,2.6-12.1-0.7-17.5c-1.5-2.4-4.9-2.9-6.9-0.9c-0.3,0.3-0.6,0.7-0.9,1c-0.1-0.1-0.2-0.3-0.3-0.4c-2.6-4-5.4-7.8-8.5-11.2
				c-0.6-0.7-1.2-1.4-1.9-2c-8.3-8.7-18.1-15.3-28.3-18.9c-0.8-0.3-1.6-0.5-2.4-0.8c-4-1.2-8-1.9-11.9-2.1c0,0,0,0-0.1,0
				c-1.6-0.1-3.1-0.1-4.6-0.1c0,0,0,0,0,0l0,0c-47,0.3-54.4,46-42.3,54c12.4,8.3,41.5-13.8,56.7,11.1c6.8,11.1-0.5,26.9-16,39.9
				c-4.2,3.5-9,6.8-14.3,9.7c-0.1,0-0.1,0.1-0.2,0.1c-0.7,0.4-1.4,0.7-2.1,1.1c-0.1,0.1-0.2,0.1-0.3,0.2c-0.7,0.3-1.3,0.7-2,1
				c-0.1,0.1-0.2,0.1-0.4,0.2c-0.7,0.3-1.3,0.6-2,1c-0.1,0.1-0.2,0.1-0.3,0.2c-0.7,0.3-1.4,0.6-2.2,1c-0.1,0-0.2,0.1-0.3,0.1
				c-3.3,1.4-6.7,2.7-10.2,3.8c-0.2,0-0.3,0.1-0.5,0.1c-0.7,0.2-1.4,0.4-2.1,0.6c-0.2,0.1-0.5,0.1-0.7,0.2c-0.6,0.2-1.3,0.3-1.9,0.5
				c-0.3,0.1-0.6,0.1-0.9,0.2c-0.6,0.1-1.2,0.3-1.8,0.4c-0.3,0.1-0.6,0.1-0.9,0.2c-0.6,0.1-1.2,0.3-1.8,0.4
				c-0.3,0.1-0.6,0.1-0.9,0.2c-0.6,0.1-1.2,0.2-1.8,0.3c-0.3,0.1-0.6,0.1-0.9,0.2c-0.7,0.1-1.3,0.2-2,0.3c-0.3,0-0.6,0.1-0.8,0.1
				c-0.8,0.1-1.5,0.2-2.3,0.3c-0.2,0-0.3,0-0.5,0.1c-1,0.1-1.9,0.2-2.9,0.3c-0.1,0-0.3,0-0.4,0c-0.8,0.1-1.6,0.1-2.5,0.2
				c-0.3,0-0.6,0-0.9,0c-0.6,0-1.3,0-1.9,0.1c-0.4,0-0.7,0-1.1,0c-0.6,0-1.2,0-1.8,0c-0.4,0-0.8,0-1.2,0c-0.6,0-1.2,0-1.7,0
				c-0.4,0-0.8,0-1.2-0.1c-0.6,0-1.1-0.1-1.7-0.1c-0.4,0-0.8-0.1-1.2-0.1c-0.6,0-1.2-0.1-1.8-0.2c-0.4,0-0.8-0.1-1.2-0.1
				c-0.6-0.1-1.2-0.1-1.8-0.2c-0.4-0.1-0.8-0.1-1.2-0.2c-0.7-0.1-1.3-0.2-2-0.3c-0.3-0.1-0.7-0.1-1-0.2c-1-0.2-2-0.4-3-0.6
				c-60.8-12.4-118.8-35.9-82.9-114.7c35.9-78.8,82.9-157.5,67.7-248.7c-0.2-1.1-0.4-2.1-0.6-3.2c0-0.2-0.1-0.4-0.1-0.6
				c-0.2-1-0.5-2-0.8-3c-0.1-0.2-0.1-0.4-0.2-0.6c-0.3-1-0.6-2.1-1-3.1c0,0,0,0,0,0c-0.4-1-0.8-2-1.2-3.1c-0.1-0.2-0.2-0.4-0.2-0.6
				c-0.4-1-0.8-1.9-1.3-2.9c-0.1-0.2-0.2-0.4-0.3-0.6c-0.5-1-1-2-1.5-3c0,0,0,0,0-0.1c-0.5-1-1.1-1.9-1.7-2.9
				c-0.1-0.2-0.2-0.4-0.3-0.5c-0.1-0.2-0.2-0.4-0.4-0.6c48.5-8.3,80.7-33.5,82.8-61c2.8-35.9-106.4-20.7-123-98.1
				c-16.6-77.4-30.4-142.3-153.4-160.3c-123-18-150.6,100.9-196.2,131.3c-45.6,30.4-98.1-12.4-134,23.5
				c-22.7,22.7,5,93.8,60.1,111.9c-39.3,38.7-56.3,91.5-53.2,147.9c1.9,33.1,8.7,61.9,17.5,87.4c-2.4,0.8-4.7,1.5-7.1,2.3
				c-3.5,1.2-2.1,6.2,1.5,5.5c2.6-0.5,5.2-1.1,7.7-1.8c29.2,80.2,76.4,126.7,44.4,169.1c0,0,0,0,0,0c-0.7,0.9-1.4,1.8-2.2,2.7
				c0,0,0,0,0,0c-0.3,0.4-0.7,0.8-1,1.2c0,0.1-0.1,0.1-0.1,0.2c-0.4,0.5-0.8,0.9-1.2,1.4c-0.4,0.5-0.8,0.9-1.3,1.3
				c-0.1,0.1-0.3,0.3-0.4,0.4c-0.3,0.3-0.6,0.6-0.9,0.9c-0.2,0.2-0.3,0.3-0.5,0.5c-0.3,0.3-0.5,0.5-0.8,0.8
				c-0.2,0.2-0.4,0.3-0.6,0.5c-0.3,0.2-0.5,0.5-0.8,0.7c-0.2,0.2-0.4,0.3-0.6,0.5c-0.3,0.2-0.5,0.4-0.8,0.6
				c-0.2,0.2-0.4,0.3-0.6,0.5c-0.3,0.2-0.5,0.4-0.8,0.6c-0.2,0.2-0.4,0.3-0.6,0.5c-0.3,0.2-0.5,0.4-0.8,0.6
				c-0.2,0.2-0.4,0.3-0.6,0.5c-0.3,0.2-0.5,0.4-0.8,0.6c-0.2,0.2-0.4,0.3-0.7,0.4c-0.3,0.2-0.5,0.4-0.8,0.5
				c-0.2,0.1-0.4,0.3-0.7,0.4c-0.3,0.2-0.5,0.3-0.8,0.5c-0.2,0.1-0.5,0.3-0.7,0.4c-0.3,0.2-0.6,0.3-0.8,0.5
				c-0.2,0.1-0.4,0.2-0.7,0.4c-0.3,0.2-0.6,0.3-0.9,0.5c-0.2,0.1-0.5,0.2-0.7,0.4c-0.3,0.1-0.6,0.3-0.9,0.4
				c-0.2,0.1-0.5,0.2-0.7,0.3c-0.3,0.1-0.6,0.3-0.9,0.4c-0.2,0.1-0.5,0.2-0.7,0.3c-0.3,0.1-0.6,0.3-0.9,0.4
				c-0.2,0.1-0.5,0.2-0.7,0.3c-0.3,0.1-0.6,0.2-0.9,0.4c-0.2,0.1-0.5,0.2-0.7,0.3c-0.3,0.1-0.6,0.2-0.9,0.3
				c-0.3,0.1-0.5,0.2-0.8,0.3c-0.3,0.1-0.6,0.2-0.9,0.3c-0.3,0.1-0.5,0.2-0.8,0.3c-0.3,0.1-0.6,0.2-0.9,0.3
				c-0.3,0.1-0.5,0.2-0.8,0.2c-0.3,0.1-0.6,0.2-0.9,0.3c-0.3,0.1-0.5,0.1-0.8,0.2c-0.3,0.1-0.6,0.2-0.9,0.3
				c-0.3,0.1-0.5,0.1-0.8,0.2c-0.3,0.1-0.6,0.2-0.9,0.2c-0.3,0.1-0.5,0.1-0.8,0.2c-0.3,0.1-0.6,0.1-0.9,0.2
				c-0.3,0.1-0.5,0.1-0.8,0.2c-0.3,0.1-0.6,0.1-0.9,0.2c-0.3,0.1-0.5,0.1-0.8,0.2c-0.3,0.1-0.6,0.1-0.9,0.2c-0.3,0-0.5,0.1-0.8,0.1
				c-0.3,0.1-0.6,0.1-0.9,0.2c-0.3,0-0.5,0.1-0.8,0.1c-0.3,0-0.6,0.1-0.9,0.1c-0.3,0-0.5,0.1-0.8,0.1c-0.3,0-0.6,0.1-0.9,0.1
				c-0.3,0-0.6,0.1-0.8,0.1c-0.3,0-0.6,0.1-0.9,0.1c-0.3,0-0.6,0-0.9,0.1c-0.3,0-0.6,0.1-0.9,0.1c-0.3,0-0.6,0-0.9,0.1
				c-0.3,0-0.6,0-0.9,0.1c-0.3,0-0.6,0-0.9,0c-0.3,0-0.6,0-0.9,0c-0.3,0-0.6,0-0.9,0c-0.3,0-0.6,0-0.9,0c-0.3,0-0.6,0-0.9,0
				s-0.6,0-0.9,0c-0.3,0-0.6,0-0.9,0c-0.3,0-0.6,0-0.9,0c-0.3,0-0.6,0-0.9,0c-0.3,0-0.6,0-0.9,0c-0.3,0-0.6,0-0.9,0
				c-0.3,0-0.6,0-0.9,0c-0.3,0-0.6,0-0.9-0.1c-0.3,0-0.6,0-0.9-0.1c-0.3,0-0.6-0.1-1-0.1c-0.3,0-0.6,0-0.9-0.1c-0.3,0-0.6-0.1-1-0.1
				c-0.3,0-0.6-0.1-0.8-0.1c-0.3,0-0.7-0.1-1-0.1c-0.3,0-0.6-0.1-0.8-0.1c-0.3,0-0.7-0.1-1-0.1c-0.3,0-0.5-0.1-0.8-0.1
				c-0.3-0.1-0.7-0.1-1-0.2c-0.3,0-0.5-0.1-0.8-0.1c-0.3-0.1-0.7-0.1-1-0.2c-0.3,0-0.5-0.1-0.8-0.1c-0.3-0.1-0.7-0.1-1-0.2
				c-0.3,0-0.5-0.1-0.8-0.1c-0.3-0.1-0.7-0.1-1-0.2c-0.3-0.1-0.5-0.1-0.8-0.2c-0.4-0.1-0.7-0.2-1.1-0.2c-0.2-0.1-0.5-0.1-0.7-0.2
				c-0.4-0.1-0.7-0.2-1.1-0.3c-0.2-0.1-0.5-0.1-0.7-0.2c-0.4-0.1-0.7-0.2-1.1-0.3c-0.2-0.1-0.5-0.1-0.7-0.2
				c-0.4-0.1-0.7-0.2-1.1-0.3c-0.2-0.1-0.4-0.1-0.7-0.2c-0.4-0.1-0.8-0.2-1.1-0.3c-0.2-0.1-0.4-0.1-0.7-0.2
				c-0.4-0.1-0.8-0.2-1.1-0.4c-0.2-0.1-0.4-0.1-0.6-0.2c-0.4-0.1-0.8-0.2-1.1-0.4c-0.2-0.1-0.4-0.1-0.6-0.2
				c-0.4-0.1-0.7-0.3-1.1-0.4c-0.3-1.4-1.2-2.7-2.6-3.7c-3.9-2.8-8.8-4.3-13.6-3.5c-0.1,0-0.2,0.1-0.3,0.1c-0.3-0.1-0.6-0.3-0.8-0.4
				c-0.1-0.1-0.3-0.1-0.4-0.2c-0.4-0.2-0.8-0.5-1.3-0.7c-0.1-0.1-0.2-0.1-0.4-0.2c-0.4-0.2-0.8-0.5-1.3-0.7
				c-0.1-0.1-0.2-0.1-0.3-0.2c-0.4-0.2-0.8-0.5-1.3-0.7c-0.1-0.1-0.2-0.1-0.3-0.2c-0.4-0.3-0.9-0.5-1.3-0.8
				c-0.1-0.1-0.2-0.1-0.3-0.2c-0.4-0.3-0.9-0.5-1.3-0.8c-0.1-0.1-0.2-0.1-0.3-0.2c-0.4-0.3-0.9-0.6-1.3-0.8
				c-0.1-0.1-0.2-0.1-0.2-0.2c-0.4-0.3-0.9-0.6-1.3-0.9c-0.1-0.1-0.2-0.1-0.2-0.2c-0.4-0.3-0.9-0.6-1.3-0.9
				c-0.1-0.1-0.1-0.1-0.2-0.2c-0.4-0.3-0.8-0.6-1.2-0.8c0.7-1.4,0.8-3.1-0.2-4.7c-2.4-4.1-7.6-7.2-12.5-6c-0.4-0.4-0.7-0.7-1.1-1.1
				c0,0,0,0,0-0.1c-0.4-0.4-0.8-0.8-1.2-1.2c0,0,0,0,0,0c-0.4-0.4-0.8-0.8-1.1-1.3c0,0,0,0,0,0c-0.4-0.4-0.8-0.8-1.1-1.3
				c0,0,0,0,0,0c-0.4-0.4-0.7-0.9-1.1-1.3c0,0,0,0,0,0c-0.4-0.4-0.7-0.9-1.1-1.3c0,0,0,0,0,0c-1.6-2-3.1-4.1-4.5-6.1
				c0.5-0.8,0.7-1.7,0.6-2.6l-0.6-9c-0.2-2.8-2-4.4-4.7-4.7c-1.1-0.1-2.2,0.1-3.2,0.5c-1.7-5.1-2.8-10.3-3-15.6
				c6.7,1.1,11.6,1.3,13.3,0.3c6.9-4.1,11.1-30.4,8.3-47c-0.1-0.3-0.1-0.6-0.2-0.9c0-0.1-0.1-0.2-0.1-0.3c-0.1-0.2-0.2-0.5-0.2-0.7
				c0-0.1-0.1-0.2-0.1-0.2c-0.1-0.3-0.3-0.6-0.4-0.9c0,0,0-0.1-0.1-0.1c-0.1-0.3-0.3-0.5-0.5-0.8c0-0.1-0.1-0.2-0.2-0.2
				c-0.2-0.2-0.3-0.5-0.5-0.7c0-0.1-0.1-0.1-0.1-0.2c-0.2-0.3-0.5-0.6-0.7-0.9c0,0-0.1-0.1-0.1-0.1c-0.2-0.3-0.5-0.5-0.7-0.8
				c-0.1-0.1-0.1-0.1-0.2-0.2c-0.3-0.3-0.5-0.5-0.8-0.8c0,0,0,0-0.1-0.1c-0.3-0.3-0.6-0.6-1-0.9c0,0-0.1-0.1-0.1-0.1
				c-0.3-0.3-0.6-0.5-1-0.8c-0.1,0-0.1-0.1-0.2-0.1c-0.7-0.6-1.5-1.1-2.4-1.6c0,0,0,0-0.1,0c-0.4-0.3-0.8-0.5-1.2-0.8
				c0,0-0.1,0-0.1-0.1c-0.9-0.5-1.8-1.1-2.8-1.6c0,0,0,0,0,0c-0.5-0.3-1-0.5-1.5-0.7c0,0,0,0,0,0l0,0c-0.3-0.2-0.7-0.3-1-0.5
				c0.4-6.1-2.6-12.4-6.8-17c-2.5-2.8-5.4-5.2-7.7-8.1c-6.2-8-7.3-19.9-1.8-28.4c5.5-8.5,17.5-12.4,26.6-7.9s13.2,17.2,7.8,25.8
				c0.6-0.3,1.2-0.5,1.8-0.8c0.1-0.1,0.3-0.1,0.4-0.2c0.6-0.3,1.2-0.6,1.8-1c0,0,0,0,0,0l0,0c12.3-7.4,18.7-23.9,14.4-37.8
				c-4.7-15.4-21.3-25.9-37.3-24.3c-11.8,1.1-22.5,8.1-29.8,17.3c-7.3,9.3-11.4,20.8-13.4,32.5c-2.1,12.5-1.2,26.5,4.4,37.5
				c0.1,0.2,0.2,0.3,0.3,0.5c0.5,1,1.1,1.9,1.7,2.8c-5.4-0.3-10.2-0.1-13.9,0.7c-8.3,1.9-15.6,25.3-17.6,40.6l0,0c0,0,0,0,0,0
				c-0.1,0.4-0.1,0.9-0.2,1.3c0,0,0,0.1,0,0.1c0,0.4-0.1,0.7-0.1,1.1c0,0.1,0,0.2,0,0.2c0,0.3-0.1,0.6-0.1,0.9c0,0.1,0,0.2,0,0.2
				c-0.1,0.7-0.1,1.5-0.1,2.1c0,0,0,0.1,0,0.1c0,0.3,0,0.6,0,0.8c0,0.1,0,0.2,0,0.3c0,0.2,0,0.5,0,0.7c0,0.1,0,0.1,0,0.2
				c0,0.3,0,0.5,0,0.8c0,0,0,0,0,0c0,0.3,0,0.5,0.1,0.8c0,0.1,0,0.1,0,0.2c0,0.2,0,0.4,0.1,0.5c0,0.1,0,0.1,0,0.2
				c0,0.2,0.1,0.3,0.1,0.5c0,0.1,0,0.1,0,0.2c0,0.2,0.1,0.4,0.1,0.5c0,0,0,0,0,0c0.1,0.2,0.1,0.3,0.2,0.5c0,0,0,0.1,0.1,0.1
				c0,0.1,0.1,0.2,0.2,0.3c0,0,0.1,0.1,0.1,0.1c0.1,0.1,0.1,0.1,0.2,0.2c0,0,0.1,0.1,0.1,0.1c0.1,0.1,0.2,0.1,0.3,0.2
				c1.5,0.7,7,2.5,14.5,4.7c-10.3,51.9,14.9,135.9,127.8,174.9c0,0-157.5,9.7-207.3,110.5c-49.7,100.9,27.6,176.6,62.2,172.7
				c5.2-0.6,10.3-1.4,15-2.5l0,0c0,0,0,0,0,0c0.5-0.1,1-0.2,1.4-0.4c0.1,0,0.3-0.1,0.4-0.1c0.5-0.1,0.9-0.2,1.3-0.4
				c0.1,0,0.2-0.1,0.3-0.1c1.4-0.4,2.7-0.8,4-1.3c0.2-0.1,0.3-0.1,0.5-0.2c0.4-0.1,0.7-0.3,1.1-0.4c0.2-0.1,0.4-0.2,0.6-0.2
				c0.3-0.1,0.7-0.3,1-0.4c0.2-0.1,0.4-0.2,0.5-0.2c0.6-0.3,1.3-0.6,1.9-0.9c0.2-0.1,0.3-0.2,0.5-0.2c0.3-0.2,0.6-0.3,0.8-0.5
				c0.2-0.1,0.4-0.2,0.6-0.4c0.3-0.2,0.5-0.3,0.8-0.5c0.2-0.1,0.4-0.3,0.7-0.4c0.2-0.2,0.5-0.3,0.7-0.5c0.3-0.2,0.5-0.4,0.7-0.5
				c0.3-0.2,0.6-0.5,1-0.7c0.3-0.2,0.5-0.4,0.8-0.6c0.2-0.2,0.4-0.3,0.6-0.5c0.2-0.2,0.4-0.4,0.6-0.6c0.2-0.2,0.4-0.4,0.5-0.5
				c0.2-0.2,0.4-0.5,0.6-0.7c0.2-0.2,0.3-0.3,0.5-0.5c0.3-0.4,0.7-0.8,1-1.2c0.1-0.1,0.2-0.3,0.3-0.4c0.2-0.3,0.4-0.6,0.7-0.9
				c0.1-0.2,0.2-0.4,0.4-0.6c0.2-0.3,0.4-0.6,0.5-0.9c0.1-0.2,0.2-0.4,0.3-0.6c0.2-0.3,0.4-0.7,0.5-1c0.1-0.2,0.2-0.3,0.2-0.5
				c0.2-0.5,0.5-1,0.7-1.6c0.1-0.2,0.1-0.3,0.2-0.5c0.1-0.4,0.3-0.8,0.4-1.2c0.1-0.2,0.1-0.4,0.2-0.6c0.1-0.4,0.2-0.8,0.3-1.2
				c0.1-0.2,0.1-0.4,0.2-0.6c0.1-0.5,0.2-1,0.3-1.5c0-0.1,0-0.2,0.1-0.4c0.1-0.6,0.2-1.3,0.3-2c0-0.2,0-0.4,0.1-0.6
				c0-0.5,0.1-1,0.1-1.5c0-0.2,0-0.5,0-0.7c0-0.5,0-1,0-1.5c0-0.2,0-0.5,0-0.7c0-0.8,0-1.5-0.1-2.3c-0.4-7.4-5.7-11.6-12.6-15.4
				c0.8-1.2,1.1-2.7,0.9-4.4c-0.6-4.3-4.2-7.5-8.1-9c-4.5-1.7-9.1-0.6-12.7,2.4c0,0,0,0,0,0c-5.7-4.1-10.5-9.4-12.8-17.3
				c1.3-0.1,2.6-1.2,2.7-2.6c2.6-1.6,3.8-4.5,3.9-7.7c0.1-3.6-1.9-6.6-4.6-8.7c-0.8-0.6-1.8-0.8-2.8-0.7c1-6.9,3.2-14.9,6.9-24.4
				c1.8,0.5,3.9,0.1,5.3-1.1c4.8-4,5.5-11.3,3.5-16.8c0.1-0.2,0.2-0.3,0.3-0.5c0.3-0.4,0.5-0.8,0.8-1.2c0.4-0.7,0.9-1.3,1.3-1.9
				c0.3-0.4,0.5-0.8,0.8-1.1c0.5-0.7,1-1.4,1.6-2.1c0.2-0.3,0.4-0.6,0.7-0.9c0.8-1,1.5-1.9,2.3-2.9c0.1-0.1,0.2-0.2,0.3-0.3
				c0.7-0.8,1.4-1.6,2.2-2.4c0.3-0.3,0.6-0.6,0.8-0.9c0.6-0.6,1.1-1.2,1.7-1.8c0.3-0.3,0.7-0.7,1-1c0.5-0.5,1.1-1.1,1.7-1.6
				c0.4-0.3,0.7-0.7,1.1-1c0.4-0.4,0.9-0.8,1.4-1.2c2.1,2.8,6.6,3.4,9.9,1.4c3.7-2.2,4.9-7.3,2.9-11c0.2-0.1,0.4-0.3,0.6-0.4
				c0.4-0.2,0.7-0.4,1.1-0.7c0.7-0.4,1.4-0.9,2.1-1.3c0.4-0.2,0.8-0.5,1.2-0.7c0.7-0.4,1.4-0.8,2-1.2c0.4-0.2,0.8-0.5,1.3-0.7
				c0.7-0.4,1.4-0.7,2.1-1.1c0.4-0.2,0.8-0.4,1.3-0.6c0.7-0.4,1.5-0.7,2.2-1.1c0.4-0.2,0.8-0.4,1.2-0.6c0.9-0.4,1.8-0.8,2.7-1.2
				c0.2-0.1,0.5-0.2,0.7-0.3c1.2-0.5,2.3-1,3.5-1.5c0.3-0.1,0.6-0.2,0.8-0.3c0.9-0.4,1.8-0.7,2.7-1.1c0.4-0.2,0.9-0.3,1.3-0.5
				c0.8-0.3,1.5-0.6,2.3-0.8c0.5-0.2,0.9-0.3,1.4-0.5c0.7-0.3,1.5-0.5,2.2-0.8c0.5-0.2,1-0.3,1.5-0.5c0.7-0.2,1.5-0.5,2.2-0.7
				c0.5-0.1,1-0.3,1.4-0.4c0.4-0.1,0.9-0.3,1.3-0.4c-0.1,0.2-0.2,0.4-0.3,0.7c-1.3,0.9-2.2,2.9-1.6,4.5c1.9,5,6.7,5.2,11,3.3
				c3-1.3,5.3-4.4,6.1-7.5c0.4-1.7-0.2-3.4-1.4-4.4c0.4-0.1,0.9-0.2,1.3-0.3c0.7-0.2,1.5-0.3,2.2-0.5c0.5-0.1,1.1-0.2,1.6-0.3
				c0.7-0.1,1.4-0.3,2.2-0.4c0.6-0.1,1.1-0.2,1.7-0.3c0.7-0.1,1.4-0.2,2.2-0.3c0.5-0.1,1.1-0.2,1.6-0.3c0.7-0.1,1.5-0.2,2.2-0.3
				c0.5-0.1,1-0.2,1.6-0.2c0.9-0.1,1.8-0.2,2.7-0.3c0.6-0.1,1.2-0.1,1.8-0.2c1-0.1,2-0.2,2.9-0.3c0.6-0.1,1.1-0.1,1.7-0.2
				c0.7-0.1,1.4-0.1,2.1-0.2c0.6-0.1,1.2-0.1,1.8-0.1c0.6-0.1,1.3-0.1,1.9-0.1c0.6,0,1.2-0.1,1.9-0.1c0.6,0,1.2-0.1,1.8-0.1
				c0.6,0,1.3-0.1,1.9-0.1c0.6,0,1.2-0.1,1.8-0.1c0.6,0,1.3-0.1,1.9-0.1c0.6,0,1.1,0,1.7-0.1c0.6,0,1.3,0,1.9-0.1c0.5,0,1,0,1.5,0
				c1.4,0,2.8,0,4.2,0c0.4,0,0.9,0,1.3,0c0.7,0,1.4,0,2.1,0c0.5,0,0.9,0,1.4,0c0.7,0,1.4,0,2.1,0.1c0.5,0,0.9,0,1.4,0
				c0.7,0,1.4,0,2.1,0.1c0.4,0,0.9,0,1.3,0.1c0.7,0,1.4,0.1,2.1,0.1c0.4,0,0.8,0,1.2,0.1c0.7,0,1.5,0.1,2.2,0.1c0.3,0,0.6,0,0.9,0.1
				c2.8,0.2,5.5,0.4,8.1,0.7c0.1,0,0.2,0,0.3,0c0.8,0.1,1.5,0.2,2.3,0.3c0.3,0,0.5,0.1,0.8,0.1c0.7,0.1,1.4,0.2,2.2,0.3
				c0.3,0,0.6,0.1,0.9,0.1c0.7,0.1,1.4,0.2,2.1,0.3c0.3,0,0.5,0.1,0.8,0.1c0.7,0.1,1.4,0.2,2.1,0.3c0.2,0,0.4,0.1,0.7,0.1
				c0.7,0.1,1.5,0.2,2.2,0.4c0.1,0,0.1,0,0.2,0c2.6,0.5,5.1,1,7.4,1.5h0c7.6,1.7,13.9,3.8,18.7,6.1c0,0-161.7,294.3-27.6,344.1
				c134,49.7,139.6-96.7,121.6-124.4c-9.4-14.5-20.7-12.3-29.3-2.4c0,0,0,0,0,0c-1.5,1.7-2.9,3.7-4.2,5.8c0,0,0,0.1,0,0.1
				c-0.2,0.4-0.5,0.8-0.7,1.2c0,0.1-0.1,0.1-0.1,0.2c-0.2,0.4-0.5,0.8-0.7,1.2c0,0,0,0.1-0.1,0.1c-0.7,1.4-1.4,2.8-2.1,4.3
				c0,0.1,0,0.1-0.1,0.2c-0.2,0.4-0.4,0.8-0.5,1.3c0,0.1-0.1,0.2-0.1,0.3c-0.2,0.4-0.3,0.8-0.5,1.2c0,0.1-0.1,0.2-0.1,0.4
				c-0.1,0.4-0.3,0.8-0.4,1.2c0,0.1-0.1,0.2-0.1,0.3c-0.2,0.5-0.3,1-0.5,1.5c0,0,0,0,0,0.1c-0.2,0.5-0.3,1.1-0.5,1.6
				c0,0,0,0.1,0,0.1c-0.1,0.5-0.3,0.9-0.4,1.4c0,0.1-0.1,0.3-0.1,0.4c-0.1,0.3-0.2,0.6-0.2,0.9c-1.5-0.6-3.2-0.3-4.6,0.9
				c-2.6,2.4-4.7,6.6-5,10.7c-1.6,0.8-2.6,2.7-1.4,4.8c1.1,1.9,2.3,3.7,3.9,5.2c0.9,0.8,1.9,1.2,2.9,1.3c-4.1,5.5-13.4,7.4-23.4,5.6
				c0-0.6,0-1.1-0.1-1.7c-1.4-8.4-13.6-13.1-20-7.2c-5.6-4.4-10.4-10.2-13.1-17.7c0.7-0.2,1.2-0.6,1.7-1.1c5.4-5.7,6.4-15.8,0-21.2
				c-1-0.8-2.2-1.3-3.4-1.3c1.2-7.4,4-15.6,8.8-24.7c2.4,0.4,5.5-0.3,8.8-3.3c7.1-6.3,5.4-11,1.4-13.1c1.3-1.8,2.6-3.6,4-5.4
				c1-1.3,2-2.6,3-3.9c0.3-0.4,0.6-0.8,0.9-1.2c0.7-0.9,1.4-1.8,2.1-2.7c0.3-0.4,0.7-0.9,1-1.3c0.7-0.9,1.4-1.8,2-2.7
				c0.3-0.4,0.6-0.8,0.9-1.2c1-1.3,1.9-2.6,2.9-3.8c0,0,0,0,0,0c0.9-1.3,1.9-2.5,2.8-3.8c0.3-0.4,0.6-0.8,0.9-1.2
				c0.6-0.9,1.3-1.8,1.9-2.6c0.3-0.4,0.6-0.9,1-1.3c0.6-0.9,1.3-1.8,1.9-2.6c0.3-0.4,0.6-0.8,0.8-1.1c0.8-1.1,1.6-2.3,2.5-3.4
				c0.7,0.2,1.5,0.3,2.3,0.3c4.1,0,7.4-2.2,9.6-5.6c2.5-3.7,1.9-8.8,1.3-12.9c0-0.1-0.1-0.2-0.1-0.3c0.3-0.4,0.6-0.9,0.9-1.3
				c0.2-0.3,0.5-0.7,0.7-1c0.6-0.9,1.2-1.7,1.7-2.5c0.3-0.4,0.5-0.8,0.8-1.2c0.6-0.9,1.2-1.7,1.8-2.6c0.2-0.3,0.4-0.6,0.6-0.9
				c1.6-2.3,3.1-4.6,4.7-6.9c0.2-0.3,0.4-0.6,0.6-0.9c0.6-0.8,1.1-1.7,1.7-2.5c0.2-0.4,0.5-0.7,0.7-1c0.1-0.2,0.3-0.4,0.4-0.6
				c4.8,1.6,9.4-0.9,12.3-5.2c3-4.3,3.6-9.8,1-14.5c-0.1-0.2-0.2-0.3-0.3-0.5c0.6-0.9,1.1-1.8,1.7-2.7c0.2-0.3,0.3-0.5,0.5-0.8
				c0.5-0.8,0.9-1.5,1.4-2.2c0.2-0.3,0.4-0.6,0.5-0.9c0.5-0.8,0.9-1.5,1.4-2.2c0.2-0.2,0.3-0.5,0.5-0.7c1.2-2,2.4-3.9,3.5-5.8
				c0.2-0.3,0.3-0.5,0.5-0.8c0.4-0.7,0.8-1.4,1.3-2.1c0.2-0.3,0.3-0.5,0.5-0.8c0.4-0.7,0.8-1.4,1.2-2.1c0.1-0.2,0.3-0.5,0.4-0.7
				c1.1-1.8,2.1-3.6,3.2-5.3c0.1-0.2,0.3-0.5,0.4-0.7c0.4-0.6,0.7-1.3,1.1-1.9c0.2-0.3,0.3-0.5,0.4-0.8c0.4-0.6,0.7-1.2,1.1-1.9
				c0.1-0.2,0.2-0.4,0.4-0.6c0.5-0.8,1-1.6,1.4-2.4c0,0,0,0,0,0c0.5-0.8,0.9-1.5,1.3-2.3c0.1-0.3,0.3-0.5,0.4-0.8
				c0.3-0.5,0.6-1,0.9-1.5c0.2-0.3,0.3-0.6,0.5-0.8c0.3-0.5,0.6-1,0.8-1.5c0.1-0.2,0.3-0.5,0.4-0.7c0.4-0.7,0.8-1.4,1.2-2.1
				c0.1-0.1,0.1-0.2,0.2-0.3c0.3-0.6,0.7-1.2,1-1.7c0.1-0.3,0.3-0.5,0.4-0.7c0.2-0.4,0.5-0.8,0.7-1.2c0.1-0.3,0.3-0.5,0.4-0.8
				c0.2-0.4,0.4-0.8,0.7-1.2c0.1-0.2,0.3-0.5,0.4-0.7c0.3-0.5,0.5-1,0.8-1.4c0.2-0.3,0.4-0.6,0.5-1c0.2-0.4,0.4-0.7,0.6-1
				c0.2-0.3,0.3-0.5,0.4-0.8c0.2-0.3,0.3-0.6,0.5-0.8c0.2-0.3,0.3-0.5,0.4-0.8c0.1-0.3,0.3-0.5,0.4-0.8c0.1-0.3,0.3-0.5,0.4-0.8
				c0.1-0.3,0.3-0.5,0.4-0.8c0.3-0.5,0.5-0.9,0.7-1.4c0.1-0.2,0.2-0.4,0.3-0.6c0.1-0.3,0.3-0.5,0.4-0.8c0.1-0.2,0.2-0.3,0.3-0.5
				c0.2-0.3,0.3-0.6,0.4-0.8c0.1-0.1,0.1-0.2,0.2-0.3c3.3-6.2,4.9-9.5,4.9-9.5s21.7,17.3,49.3,43.2c-2.2,0.9-4.1,3.3-3.1,5.8
				c1.4,3.4,5.6,9.8,10.1,9.4c0.3,0.5,0.6,0.9,1,1.3c2.8,2.9,6.6,3.2,10.1,1.5c0.1-0.1,0.2-0.2,0.3-0.2c12.2,12,24.8,25.1,36.7,38.7
				c-1.2,0.8-1.9,2.3-1.5,4.1c0.7,2.9,1.9,6.4,3.9,9.2c0,1.9,1.1,3.7,2.8,4.9c3,2,6.7,1.1,8.9-1.5c10.8,13.3,20.6,26.9,28.4,40.1
				c-0.8,3.7-0.5,10,2.4,13.3c0.5,1.1,1.2,2,2,3c1.3,1.4,3.1,1.8,4.8,1.4c0.4,0.9,0.8,1.8,1.2,2.7c9.4,22,11.9,39.4,10.1,52.1
				c-2.1,1.5-3.9,3.4-5,5.8c-0.3,0.1-0.5,0.2-0.8,0.3c-0.6,0.3-1.3,1-1.9,1.2c-3.3,1.3-4.5,4.3-3.1,7.6c0.7,1.5,1.9,2.5,3.3,3.2
				c-2.8,3.3-6.2,5.7-9.9,7.2c-4.5-2.7-10.4-2.3-14.1,1.2c-8.1-1.5-16.4-6.5-22.8-15.1c-24.9-33.2-58-34.5-59.4,8.3
				c-0.4,12.6,2.5,25.3,9.1,36.5c0,0,0,0,0,0c0.3,0.5,0.6,1.1,1,1.6c0,0.1,0.1,0.1,0.1,0.2c0.3,0.5,0.6,1,0.9,1.5
				c0.1,0.1,0.1,0.2,0.2,0.3c0.3,0.5,0.6,0.9,0.9,1.4c0.1,0.1,0.2,0.2,0.2,0.3c0.3,0.4,0.6,0.9,0.9,1.3c0.1,0.1,0.2,0.3,0.3,0.4
				c0.3,0.4,0.6,0.8,1,1.2c0.1,0.1,0.2,0.3,0.4,0.4c0.3,0.4,0.6,0.8,1,1.1c0.1,0.2,0.3,0.3,0.4,0.5c0.3,0.4,0.7,0.7,1,1.1
				c0.1,0.2,0.3,0.3,0.4,0.5c0.3,0.4,0.7,0.7,1,1.1c0.2,0.2,0.3,0.3,0.5,0.5c0.3,0.3,0.7,0.7,1,1c0.2,0.2,0.4,0.3,0.5,0.5
				c0.3,0.3,0.7,0.6,1,1c0.2,0.2,0.4,0.3,0.6,0.5c0.4,0.3,0.7,0.6,1.1,0.9c0.2,0.2,0.4,0.3,0.6,0.5c0.4,0.3,0.7,0.6,1.1,0.9
				c0.2,0.2,0.4,0.3,0.6,0.5c0.4,0.3,0.7,0.6,1.1,0.9c0.2,0.2,0.5,0.3,0.7,0.5c0.4,0.3,0.8,0.6,1.1,0.8c0.2,0.2,0.5,0.3,0.7,0.5
				c0.4,0.3,0.8,0.5,1.2,0.8c0.2,0.2,0.5,0.3,0.7,0.5c0.4,0.3,0.8,0.5,1.2,0.8c0.3,0.2,0.5,0.3,0.8,0.5c0.4,0.2,0.8,0.5,1.3,0.7
				c0.3,0.1,0.5,0.3,0.8,0.4c0.4,0.2,0.9,0.5,1.3,0.7c0.3,0.1,0.5,0.3,0.8,0.4c0.5,0.2,0.9,0.5,1.4,0.7c0.2,0.1,0.5,0.2,0.7,0.3
				c0.5,0.2,1,0.5,1.5,0.7c0,0,0,0,0,0c1.2,0.6,2.5,1.1,3.7,1.6c0.3,0.1,0.6,0.2,0.8,0.3c0.4,0.2,0.9,0.3,1.3,0.5
				c0.4,0.1,0.7,0.3,1.1,0.4c0.4,0.2,0.8,0.3,1.3,0.4c0.4,0.1,0.8,0.3,1.2,0.4c0.4,0.1,0.8,0.3,1.3,0.4c0.4,0.1,0.8,0.3,1.3,0.4
				c0.4,0.1,0.9,0.2,1.3,0.4c0.4,0.1,0.9,0.3,1.3,0.4c0.4,0.1,0.9,0.2,1.3,0.3c0.5,0.1,0.9,0.2,1.4,0.3c0.4,0.1,0.9,0.2,1.3,0.3
				c0.5,0.1,0.9,0.2,1.4,0.3c0.4,0.1,0.9,0.2,1.4,0.3c0.5,0.1,1,0.2,1.5,0.3c0.5,0.1,0.9,0.2,1.4,0.2c0.5,0.1,1,0.2,1.5,0.3
				c0.5,0.1,0.9,0.1,1.4,0.2c0.5,0.1,1,0.2,1.5,0.2c0.5,0.1,1,0.1,1.4,0.2c0.5,0.1,1.1,0.1,1.6,0.2c0.5,0.1,1,0.1,1.5,0.2
				c0.5,0.1,1.1,0.1,1.6,0.2c0.5,0,1,0.1,1.5,0.1c0.6,0,1.1,0.1,1.7,0.1c0.5,0,1,0.1,1.5,0.1c0.6,0,1.1,0.1,1.7,0.1
				c0.5,0,1,0,1.6,0.1c0.6,0,1.2,0,1.8,0c0.5,0,1,0,1.6,0c0.6,0,1.2,0,1.8,0c0.5,0,1.1,0,1.6,0c0.6,0,1.2,0,1.8,0c0.5,0,1.1,0,1.6,0
				c0.6,0,1.3-0.1,1.9-0.1c0.5,0,1.1,0,1.6-0.1c0.6,0,1.3-0.1,2-0.1c0.6,0,1.1-0.1,1.7-0.1c0.7,0,1.3-0.1,2-0.2
				c0.6,0,1.1-0.1,1.7-0.1c0.7-0.1,1.4-0.1,2.1-0.2c0.6-0.1,1.1-0.1,1.7-0.2c0.7-0.1,1.5-0.2,2.2-0.3c0.5-0.1,1.1-0.1,1.6-0.2
				c0.8-0.1,1.6-0.2,2.3-0.3c0.5-0.1,1-0.1,1.6-0.2c0.9-0.1,1.8-0.3,2.7-0.4c0.4-0.1,0.9-0.1,1.3-0.2c1.3-0.2,2.7-0.5,4-0.7
				c88.4-16.6,84.3-142.3,53.9-203.1c-0.6-1.1-1.1-2.3-1.7-3.4c-0.2-0.3-0.3-0.7-0.5-1c-0.4-0.8-0.8-1.6-1.2-2.5
				c-0.2-0.3-0.3-0.7-0.5-1c-0.5-1.1-1.1-2.2-1.6-3.2c0,0,0,0,0-0.1c-0.5-1.1-1.1-2.2-1.6-3.3c-0.1-0.3-0.3-0.6-0.4-0.9
				c-0.4-0.8-0.8-1.7-1.2-2.5c-0.1-0.3-0.3-0.6-0.4-0.9c-1.1-2.2-2.1-4.3-3.1-6.4c-0.1-0.3-0.2-0.5-0.4-0.8
				c-0.4-0.9-0.8-1.7-1.2-2.6c-0.1-0.2-0.2-0.5-0.3-0.7c-1-2.1-2-4.2-3-6.3c-0.1-0.2-0.1-0.3-0.2-0.5c-0.4-0.9-0.9-1.9-1.3-2.8
				c-0.1-0.1-0.1-0.2-0.2-0.4c-1-2.1-1.9-4.2-2.9-6.2c0-0.1-0.1-0.1-0.1-0.2c-0.4-1-0.9-1.9-1.3-2.9c0-0.1-0.1-0.2-0.1-0.2
				c-0.9-2-1.8-4-2.7-5.9v0c-14.3-31.6-22.3-51.9-22.3-51.9s12.1-0.4,30.2,0.7c-1.2,1.2-1.2,2.8-0.3,4c-0.1,0.6-0.2,1.3,0,2
				c0.8,4.2,5.7,5.6,9.4,5.4c3.9-0.2,7.7-2,10.4-4.9c1.2-1.3,1.6-3.1,1.2-4.8c13.6,1.5,28.9,3.9,44.2,7.7c-0.7,1.9-0.5,4,1.2,5.7
				c5.2,5.2,14.5,5.2,19.8,0.4c16.6,5.6,32.4,13.2,45.4,23.3c0,0.6,0,1.3,0.1,1.9c0.4,2.8,1.9,5.2,3.8,7.2c1.8,1.9,5.1,3.5,7.7,2.7
				c0.3-0.1,0.6-0.3,0.9-0.5c14,15.3,20.9,31,24.1,46c-4.4-0.1-7.5,4.7-7.6,8.6c0,1.5,0.5,3,1.3,4.4c-0.1,2.3,1.5,4.5,3.8,5.2
				c1.7,0.5,3.3,0.3,4.8-0.4c1.4,26.3-5.1,48,3,56.6l0,0c0,0,0,0,0,0c0.3,0.3,0.5,0.5,0.8,0.8c0,0,0,0,0,0c0.3,0.2,0.6,0.5,0.9,0.7
				c0,0,0.1,0,0.1,0.1c0.3,0.2,0.6,0.4,0.9,0.5c0.1,0,0.1,0.1,0.2,0.1c0.4,0.2,0.7,0.4,1.1,0.5c5.5,2.3,12.1,1,18.9-3.2
				c0.9-0.5,1.8-1.1,2.7-1.8c1.8-1.3,3.6-2.8,5.4-4.5c1.8-1.7,3.6-3.5,5.3-5.5c0.9-1,1.7-2.1,2.6-3.1c0.8-1.1,1.7-2.2,2.5-3.4
				c3.3-4.7,6.3-9.9,8.9-15.7c1.7-3.6,3.2-7.4,4.5-11.3c0.3-0.8,0.5-1.6,0.8-2.4c4.2-13.7,6.1-29.1,4.3-45.4
				c-0.4-3.8-1.1-7.7-1.9-11.6c-0.2-1-0.5-2.1-0.7-3.1c-0.1-0.3-0.2-0.7-0.3-1c-0.2-0.7-0.4-1.4-0.6-2.1c-0.1-0.4-0.2-0.8-0.3-1.2
				c-0.2-0.6-0.4-1.2-0.6-1.8c-0.1-0.4-0.3-0.8-0.4-1.2c-0.2-0.6-0.4-1.2-0.6-1.8c-0.1-0.4-0.3-0.8-0.4-1.2
				c-0.2-0.6-0.4-1.2-0.6-1.8c-0.1-0.4-0.3-0.7-0.4-1.1c-0.2-0.6-0.5-1.3-0.8-1.9c-0.1-0.3-0.2-0.6-0.3-0.9
				c-0.4-0.9-0.8-1.8-1.2-2.7c0-0.1-0.1-0.2-0.2-0.3c-0.4-0.8-0.7-1.6-1.1-2.3c-0.1-0.3-0.3-0.6-0.4-0.9c-0.3-0.6-0.6-1.2-0.8-1.7
				c-0.2-0.3-0.3-0.7-0.5-1c-0.3-0.5-0.5-1.1-0.8-1.6c-0.2-0.3-0.4-0.7-0.5-1c-0.3-0.5-0.6-1-0.8-1.5c-0.2-0.3-0.4-0.6-0.6-1
				c-0.3-0.5-0.6-1-0.9-1.5c-0.2-0.3-0.3-0.6-0.5-0.9c-0.4-0.6-0.7-1.2-1.1-1.8c-0.1-0.2-0.2-0.4-0.4-0.6c-0.5-0.8-1-1.6-1.5-2.3
				c-0.1-0.1-0.2-0.2-0.2-0.3c-0.4-0.6-0.9-1.3-1.3-1.9c-0.2-0.2-0.3-0.5-0.5-0.7c-0.4-0.5-0.7-1-1.1-1.5c-0.2-0.3-0.4-0.5-0.6-0.8
				c-0.4-0.5-0.7-0.9-1.1-1.4c-0.2-0.2-0.4-0.5-0.6-0.7c-0.4-0.5-0.7-0.9-1.1-1.4c-0.2-0.2-0.4-0.5-0.6-0.7c-0.4-0.5-0.8-1-1.2-1.4
				c-0.2-0.2-0.3-0.4-0.5-0.5c-0.5-0.6-1-1.2-1.5-1.8c0,0-0.1-0.1-0.1-0.1c-0.6-0.7-1.2-1.3-1.8-2c0,0,0,0,0,0
				c-0.6-0.6-1.1-1.2-1.7-1.8c-0.1-0.1-0.2-0.3-0.4-0.4c-0.5-0.5-0.9-1-1.4-1.4c-0.1-0.1-0.3-0.3-0.4-0.4c-0.4-0.4-0.9-0.9-1.3-1.3
				c-0.1-0.1-0.3-0.3-0.4-0.4c-0.5-0.4-0.9-0.9-1.4-1.3c-0.1-0.1-0.2-0.2-0.4-0.3c-0.5-0.5-1-1-1.6-1.5c-0.1,0-0.1-0.1-0.2-0.1
				c-1.8-1.6-3.6-3.2-5.3-4.6c0,0,0,0-0.1-0.1c-0.6-0.5-1.1-0.9-1.7-1.4c0,0-0.1-0.1-0.1-0.1c-0.5-0.4-1.1-0.9-1.6-1.3
				c0,0-0.1-0.1-0.1-0.1c-10.1-8-19-12.9-23.3-15.1l0,0c0,0,0,0,0,0c-1.5-0.8-2.4-1.2-2.6-1.3c0,0-0.1,0-0.1,0s13.4-7.2,33.4-14.8
				c0.5,0.5,1.2,0.7,2,0.6c0.3-0.1,0.5-0.1,0.8-0.2c0.4,1.6,1.5,3,3.6,3.6c5.8,1.7,12.4-0.3,17.3-3.5c2.3-1.5,3.2-5.1,0.9-7.1
				c-0.5-0.4-0.9-0.8-1.4-1.1c4-1.2,8.2-2.3,12.4-3.4c2.1-0.5,4.2-1,6.4-1.5c2.1-0.5,4.3-0.9,6.5-1.3c3.9-0.7,7.9-1.4,11.9-1.9
				c0.3,1.4,1,2.8,2,4c2.8,3.3,7.4,4,11.4,3.1c4.2-1,7.1-5,9.3-8.5c0.6,0,1.2,0,1.9,0c9.9,0.2,19.6,1.5,28.7,4.2
				c3.2,1,6.4,2.1,9.5,3.5c0,0.3,0.1,0.6,0.2,1c0.6,2,1.6,3.5,3,4.7c0,0.1,0,0.2,0,0.3c0.6,9.5,12.5,12.3,19.3,7
				c0.1-0.1,0.2-0.2,0.3-0.3c0.7,0.5,1.3,0.9,2,1.4c5,3.6,9.4,7.3,13.2,11c0.5,0.5,1.1,1.1,1.6,1.6c1,1.1,2,2.2,2.9,3.3
				c0.9,1.1,1.8,2.2,2.6,3.3c0.8,1.1,1.6,2.2,2.3,3.3c2.2,3.3,3.9,6.7,5.2,10.1c0.4,1.1,0.8,2.2,1.2,3.4c0.1,0.4,0.2,0.7,0.3,1.1
				c-0.4,0.2-0.9,0.5-1.2,0.9c-4.1,4.5-6.2,10.7-4,16.6c0.9,2.4,3.6,3.5,5.7,2.5c0,0.2-0.1,0.4-0.1,0.5c-0.4,1.6-0.9,3.2-1.5,4.8
				c-0.2,0.5-0.4,1-0.7,1.6c-3.3,7.6-9.1,14.7-17.3,20.9c-0.5-0.1-1.1-0.1-1.7-0.1c-2.2,0.1-4.1,1.8-4.2,4.1
				c-0.9,0.6-1.8,1.1-2.7,1.6c-31.9,16.9-38.5-26-25.5-48.1c13.8-23.5-44.2-27.6-56.7,24.9c-3.2,13.3-2.3,27.9,2,41.6v0c0,0,0,0,0,0
				c0.4,1.1,0.7,2.3,1.2,3.4c0,0.1,0.1,0.3,0.1,0.4c0.2,0.5,0.4,1,0.6,1.5c0.1,0.2,0.1,0.4,0.2,0.6c0.6,1.6,1.3,3.2,2.1,4.8
				c0.1,0.2,0.2,0.3,0.2,0.5c0.2,0.5,0.5,0.9,0.7,1.4c0.1,0.2,0.2,0.4,0.3,0.6c0.2,0.5,0.5,0.9,0.7,1.4c0,0,0,0,0,0.1
				c0.5,1,1.1,2,1.7,2.9c0.1,0.2,0.2,0.4,0.4,0.6c0.3,0.4,0.5,0.8,0.8,1.3c0.1,0.2,0.3,0.4,0.4,0.7c0.3,0.4,0.5,0.8,0.8,1.2
				c0.1,0.1,0.1,0.2,0.2,0.3c0.6,0.8,1.1,1.7,1.7,2.5c0.2,0.2,0.3,0.5,0.5,0.7c0.3,0.4,0.6,0.7,0.8,1.1c0.2,0.2,0.4,0.5,0.6,0.7
				c0.3,0.4,0.6,0.7,0.9,1.1c0.2,0.2,0.4,0.5,0.6,0.7c0.5,0.6,1,1.2,1.5,1.7c0.2,0.3,0.5,0.5,0.7,0.8c0.3,0.3,0.6,0.6,0.9,0.9
				c0.3,0.3,0.5,0.5,0.8,0.8c0.3,0.3,0.6,0.6,0.9,0.9c0.5,0.5,1,0.9,1.5,1.4c0.3,0.3,0.6,0.5,0.8,0.7c0.3,0.3,0.6,0.5,0.9,0.8
				c0.3,0.2,0.6,0.5,0.9,0.7c0.3,0.3,0.6,0.5,1,0.8c0.3,0.2,0.6,0.4,0.8,0.7c0.6,0.4,1.1,0.8,1.7,1.3c0.3,0.2,0.5,0.4,0.8,0.6
				c0.4,0.3,0.7,0.5,1.1,0.8c0.3,0.2,0.6,0.4,0.9,0.6c0.4,0.3,0.8,0.5,1.2,0.7c0.3,0.2,0.5,0.3,0.8,0.5c0.6,0.4,1.3,0.7,1.9,1.1
				c0.3,0.1,0.5,0.3,0.8,0.4c0.4,0.2,0.9,0.5,1.3,0.7c0.3,0.1,0.6,0.3,0.9,0.4c0.5,0.2,1,0.4,1.4,0.7c0.2,0.1,0.5,0.2,0.7,0.3
				c0.7,0.3,1.4,0.6,2.1,0.9c0.3,0.1,0.5,0.2,0.8,0.3c0.5,0.2,1,0.4,1.5,0.6c0.3,0.1,0.6,0.2,0.9,0.3c0.6,0.2,1.1,0.4,1.7,0.5
				c0.2,0.1,0.4,0.1,0.7,0.2c0.8,0.2,1.5,0.4,2.3,0.6c0.3,0.1,0.5,0.1,0.8,0.2c0.6,0.1,1.1,0.3,1.7,0.4c0.3,0.1,0.6,0.1,0.9,0.2
				c0.6,0.1,1.3,0.2,1.9,0.3c0.2,0,0.4,0.1,0.6,0.1c0.8,0.1,1.7,0.2,2.5,0.3c0.2,0,0.5,0,0.8,0.1c0.6,0.1,1.3,0.1,1.9,0.1
				c0.3,0,0.6,0,0.9,0.1c0.7,0,1.4,0.1,2.2,0.1c0.2,0,0.3,0,0.5,0c0.9,0,1.8,0,2.7,0c0.3,0,0.5,0,0.8,0c0.7,0,1.3-0.1,2-0.1
				c0.3,0,0.6,0,0.9-0.1c0.8-0.1,1.6-0.1,2.4-0.2c0.1,0,0.3,0,0.4,0c0.9-0.1,1.9-0.2,2.8-0.4c0.3,0,0.5-0.1,0.8-0.1
				c0.7-0.1,1.4-0.2,2.1-0.4c0.3-0.1,0.6-0.1,0.9-0.2c0.9-0.2,1.7-0.4,2.6-0.6c0.1,0,0.2,0,0.3-0.1c1-0.2,2-0.5,3-0.8
				c0.3-0.1,0.6-0.2,0.8-0.2c0.7-0.2,1.5-0.4,2.2-0.7c0.3-0.1,0.6-0.2,0.9-0.3c0.9-0.3,1.9-0.6,2.8-1c0.1,0,0.2-0.1,0.3-0.1
				c1-0.4,2.1-0.8,3.1-1.2c0.3-0.1,0.6-0.2,0.9-0.4c0.8-0.3,1.6-0.7,2.4-1c0.3-0.1,0.6-0.3,0.9-0.4c1-0.5,2-0.9,3-1.4
				c0,0,0.1,0,0.1-0.1c1.1-0.5,2.1-1.1,3.2-1.6c0.3-0.2,0.6-0.3,0.9-0.5c0.8-0.4,1.6-0.9,2.4-1.3c0.3-0.2,0.6-0.4,1-0.5
				c1.1-0.6,2.2-1.3,3.3-2c1.1-0.7,2.2-1.4,3.3-2.1c0.3-0.2,0.6-0.4,0.9-0.6c0.8-0.6,1.6-1.1,2.4-1.7c0.3-0.2,0.6-0.4,0.8-0.6
				c1-0.7,2-1.5,3-2.3c0.2-0.2,0.4-0.3,0.6-0.5c0.8-0.6,1.6-1.3,2.4-1.9c0.3-0.3,0.6-0.5,1-0.8c0.7-0.6,1.5-1.3,2.2-1.9
				c0.2-0.2,0.5-0.4,0.7-0.6c0.9-0.8,1.8-1.6,2.7-2.5c0.3-0.3,0.6-0.6,0.9-0.9c0.6-0.6,1.2-1.2,1.8-1.8c0.3-0.3,0.7-0.7,1-1
				c0.7-0.7,1.3-1.4,2-2.1C1213.7,1085.4,1214.1,1085,1214.4,1084.7z"/>
			<path fill="#7AC7D2" d="M298,1116.1c0.1,0,0.1-0.1,0-0.1S297.9,1116.1,298,1116.1z"/>
		</g>
	</g>
	<g>
		<path fill="#F16A54" d="M679,285.4C474.5,266,386,371.5,393,494c8.3,146.5,113.3,210,59.4,268.1c-53.9,58-182.7-10.6-150.6-82.9
			c5.5-12.4,6.9-52.5-31.8-24.9c-38.7,27.6-45.6,161.7,106.4,214.2c0,0-157.5,9.7-207.3,110.5s27.6,176.6,62.2,172.7
			c24.9-2.8,45.6-9.7,44.2-37.3s-71.9-11.1-37.3-92.6s170-76,207.3-58c0,0-161.7,294.3-27.6,344.1c134,49.7,139.6-96.7,121.6-124.4
			c-18-27.6-42.8,5.5-42.8,37.3c0,31.8-107.8,6.9-37.3-84.3s107.8-167.2,107.8-167.2s124.4,99.5,157.5,176.9
			c33.2,77.4-19.3,96.7-44.2,63.6c-24.9-33.2-58-34.5-59.4,8.3c-1.4,42.8,35.9,87,124.4,70.5c88.4-16.6,84.3-142.3,53.9-203.1
			S750.8,979,750.8,979s121.6-4.1,172.7,49.7c51.1,53.9,11.1,114.7,34.5,124.4c23.5,9.7,67.7-45.6,53.9-107.8
			c-13.8-62.2-73.2-88.4-73.2-88.4s98.1-52.5,158.9-23.5s67.7,73.2,30.4,99.5c-37.3,26.3-45.6-20.7-31.8-44.2
			c13.8-23.5-44.2-27.6-56.7,24.9c-12.4,52.5,37.3,125.7,116.1,77.4s90.1-181.1-41.5-216.9c-106.4-29-171.3,0-234.9-23.5
			c0,0,103.6,16.6,176.9-41.5c73.2-58,20.7-145.1-30.4-147.8c-51.1-2.8-59.4,45.6-47,53.9c12.4,8.3,41.5-13.8,56.7,11.1
			c15.2,24.9-40.1,73.2-100.9,60.8S815.8,751,851.7,672.3c35.9-78.8,82.9-157.5,67.7-248.7S679,285.4,679,285.4z"/>
		<path fill="#EF4E3D" d="M268.8,696.1c0,34.7,20.1,68.4,49.8,86.3s68.1,19.9,100.2,6.7c15.6-6.4,30.5-18,38.2-32.5
			c-1.4,1.8-2.9,3.7-4.6,5.5c-53.6,57.7-181.5-9.9-151.1-81.8L268.8,696.1z"/>
		<path fill="#EF4E3D" d="M829.3,509.7c6.1,34.1-0.6,69.3-12.2,102c-7.4,20.7-16.7,40.8-21.8,62.1c-6.6,27.7-5.5,58,7.3,83.5
			c17.6,35.3,56.5,57.6,95.9,59.9c39.4,2.3,78.6-13.8,108.8-39.3c4.3-3.6,8.5-7.6,12.3-11.9c-19.3,16.1-51.2,27.8-84.8,20.9
			c-60.8-12.4-118.8-35.9-82.9-114.7c35.9-78.8,82.9-157.5,67.7-248.7c-12.7-76.1-171.6-121.4-223.9-134.3l-238,46.5
			c-5.3,4.4-10.2,8.9-14.8,13.7c12.1,16.2,35,23.6,56,25.3c17.9,1.4,36,0.2,53.6-3.8c18.1-4.1,35.5-11,53.9-13.2
			c20.7-2.5,41.7,1.2,61.9,6.6c13.9,3.7,28,8.4,39,17.8c10.4,8.8,17.4,21.3,28.4,29.4c10.6,7.9,24,10.9,36,16.6
			C802.8,442.9,823.2,475.6,829.3,509.7z"/>
		<path fill="#FCB814" d="M282.8,653c-0.1-4.1-4.6-6.4-8-8.6c-16.1-10-19.8-32.3-16.6-51c2-11.7,6.1-23.2,13.4-32.5
			c7.3-9.3,18.1-16.2,29.8-17.3c16-1.5,32.6,9,37.3,24.3c4.7,15.4-3.6,33.8-18.5,39.8c5.4-8.5,1.3-21.3-7.8-25.8s-21.1-0.6-26.6,7.9
			s-4.4,20.4,1.8,28.4c2.3,2.9,5.2,5.3,7.7,8.1c5.1,5.7,8.6,14,5.9,21.2C298.7,654.8,288,658.7,282.8,653z"/>
		<path fill="#F79C1D" d="M295.4,626.4c-2.5-2.8-5.4-5.2-7.7-8.1c-6.2-8-7.3-19.9-1.8-28.4c5.5-8.5,17.5-12.4,26.6-7.9
			s13.2,17.2,7.8,25.8c1.4-0.6,2.7-1.2,4-2c6.2-7.9,5.7-20.7-1.2-28.3c-7.9-8.7-22-10.4-32.4-5c-10.5,5.4-17.1,16.7-18.4,28.4
			c-0.2,2.3-0.3,4.6,0.3,6.8c1.4,5.4,6.5,10.3,4.8,15.6c-1.4,4.5-6.9,6.3-11.6,6.1c-1.4-0.1-2.8-0.3-4.1-0.5
			c2.8,6.4,7.1,11.8,13.2,15.6c3.5,2.2,7.9,4.5,8,8.6c5.2,5.7,15.9,1.8,18.5-5.4C303.9,640.3,300.5,632.1,295.4,626.4z"/>
		<path fill="#442C29" d="M386.1,234.3c-25.8,25.8,13.5,114.3,84.3,116.1c55.3,1.4,127.1-42.8,216.9-27.6
			c89.8,15.2,99.5,74.6,174.1,78.8s128.5-27.6,131.3-63.6s-106.4-20.7-123-98.1c-16.6-77.4-30.4-142.3-153.4-160.3
			S565.7,180.4,520.1,210.8S422,198.3,386.1,234.3z"/>
		<path fill="#FCB814" d="M250.7,635c-12.1,2.8-22.1,51.1-16.6,53.9s69.1,20.7,76,16.6c6.9-4.1,11.1-30.4,8.3-47
			S268.6,630.8,250.7,635z"/>
		<path fill="#5A3E3B" d="M511.9,245.5c-9.4,2.2-19.1,3.7-28.8,4c-10.4,0.3-21-1.1-31.3-2.3c-11-1.3-21.9-2.7-33-2.5
			c-9.4,0.1-21.6,0.9-29.8,6.1c-1.5,1-0.9,3.3,0.9,3.3c5.4,0.2,10.7-0.7,16.1-0.7c5.7,0,11.3,0.7,16.9,1.5
			c10.8,1.5,21.5,3.9,32.3,5.7c19.6,3.3,43.1,5.6,60.3-6.3C519.9,251.2,517.3,244.3,511.9,245.5z"/>
		<path fill="#5A3E3B" d="M544.6,217.6c-3.2,3.1-5.2,6.9-7.7,10.6c-2.8,4-6.5,7.2-9.2,11.1c-0.9,1.3,0.6,3.1,2,2.6
			c4.7-1.5,8.5-5,12.1-8.3c3.9-3.6,7.3-7.4,8.6-12.7C551.1,217.6,547.1,215.2,544.6,217.6z"/>
		<path fill="#5A3E3B" d="M891.2,310.2c-11.9-8.6-24.1-16.3-34.3-27c-10.2-10.8-18.1-24.1-23.2-38c-1-2.7-5-1.7-4.3,1.2
			c3.4,15.7,10.2,30,19.9,42.7c9.8,12.9,22.6,24.8,38.3,29.7C893,320.5,895.3,313.2,891.2,310.2z"/>
		<path fill="#5A3E3B" d="M967.4,338.6c-2.3-8.3-12.6-13.6-20-16.6c-8-3.2-18-5.6-26.3-2.1c-1.5,0.6-0.8,2.6,0.4,3.1
			c6.9,2.6,14.2,3.5,20.9,6.8c3.3,1.6,6.4,3.8,9.3,6.1c3.2,2.5,5.7,5.9,9.4,7.5C964.4,344.9,968.5,342.5,967.4,338.6z"/>
		<path fill="#FFFFFF" d="M725.4,239.2c-0.6,6.7-3.8,13.9-10.1,16.4c-6.3,2.4-15-3.3-13-9.8c-2.1,6.2-7.2,11.3-13.4,13.4
			c-2.9,1-6.2,1.3-8.9,0c-6.5-3.1-6.3-12.2-5.1-19.3c-2.6,5.6-11.3,7.2-15.7,2.8c-4.4-4.4-2.8-13.1,2.8-15.7
			c-13.1-9.9-17.5-29.8-9.7-44.3c5.9-11,17.6-18.2,29.9-20.6c12.3-2.5,25.1-0.7,37.1,2.9c14,4.1,28.3,11.5,34.2,24.8
			c4.4,9.9,3.1,21.8-2.5,31.1C745.5,230.1,735.9,236.6,725.4,239.2z"/>
		<path fill="#442C29" d="M692,180.4c-4.4-1.9-8.5-1.1-11.9,1.4c-0.1,0-0.2,0-0.3,0.1c-4.6,1.2-7.7,6-8.1,10.4
			c-0.2,1.8,0,3.6,0.5,5.1c-0.3,3.4,0.9,6.9,3.7,9.1c8.5,7,19.2,1.8,21.8-8.1c0.1-0.5,0.2-0.9,0.3-1.4c0.5-1.5,0.8-3.2,0.8-4.8
			C698.7,187.8,696.4,182.3,692,180.4z"/>
		<path fill="#442C29" d="M726.8,192.3c-4.4-1.9-8.5-1.1-11.9,1.4c-0.1,0-0.2,0-0.3,0.1c-4.6,1.2-7.7,6-8.1,10.4
			c-0.2,1.8,0,3.6,0.5,5.1c-0.3,3.4,0.9,6.9,3.7,9.1c8.5,7,19.2,1.8,21.8-8.1c0.1-0.5,0.2-0.9,0.3-1.4c0.5-1.5,0.8-3.2,0.8-4.8
			C733.5,199.7,731.2,194.2,726.8,192.3z"/>
		<path fill="#442C29" d="M700.2,220.7c-0.9-1.1-1.9-2.2-2.8-3.3c-1.6-1.8-4.3-2.3-6.1-0.3c-0.2,0.2-0.3,0.4-0.5,0.6
			c-2,0.6-3.7,2.6-5.2,3.9c-2,1.8-1.9,4.6,0.5,6c2.2,1.3,4.7,2.1,7.1,3.1c1.9,0.8,4,0.1,5-1.8c0.8-1.5,1.5-3,2.3-4.5
			C701.1,223.4,701.1,221.7,700.2,220.7z"/>
		<path fill="#FFFFFF" d="M645.9,233.2c-1-2.6-3.3-3.7-5.9-3.8c-4.4-0.2-8.7,1.1-12.8,2.4c-2.1-3-4.9-5.5-8.5-7.1
			c-3.5-1.6-8,0.4-8.6,4.3c-1.4,9,1.3,18.9,8.4,24.9c0.1,0.1,0.2,0.2,0.3,0.2c0,0.1,0.1,0.1,0.1,0.2c2.5,3.6,8.6,3.4,10.4-0.8
			c0.7-1.6,1.2-3.2,1.5-4.9c0.4-0.1,0.7-0.3,1.1-0.5c1.9-0.9,3.4-2.2,4.4-3.8c2.4-1.6,5.2-3,7.5-4.5
			C646,238.5,646.8,235.5,645.9,233.2z"/>
		<path fill="#FFFFFF" d="M759.3,264.8c-1-2.8-3.8-5.4-6.8-6.4c-0.4-0.7-0.9-1.4-1.7-1.9c-2.2-1.5-4-3.8-5.9-5.7
			c-1.7-1.8-3.5-3.9-6.1-4.3c-1.4-0.3-2.8,0.7-3.1,2.1c-0.5,2.3,0.6,4.3,1.4,6.4c0.5,1.3,1.1,2.5,1.6,3.8c0.4,0.9,1.3,2.2,1.5,3.1
			c0.2,1,0.6,1.9,1,2.7c-1.1,2.2-1.3,4.8-0.7,7.2c1.3,5.6,7.4,7.3,12.3,5.9C758.5,276.1,761.1,270,759.3,264.8z"/>
		<path fill="#FFFFFF" d="M671,145.1c-0.5-2.8-1.4-5.6-2.3-8.3c0-0.2-0.1-0.3-0.2-0.4c1.7-1.8,2.5-4.5,1.5-7.3
			c-2-5.3-9.3-5.8-13.5-3.2c-4.1,2.5-6.2,8.2-2.4,11.9c1,0.9,2.4,1.5,3.8,1.7c0.1,5.3,4.3,13.2,9.9,14.1c1.9,0.3,3.9-1.2,3.7-3.3
			c-0.1-1.1-0.5-2.1-0.8-3C671,146.6,671.1,145.8,671,145.1z"/>
		<path fill="#FFFFFF" d="M779.4,158.9c-5.6-1.1-9.4,3.3-9.7,8c-0.7,0.4-1.4,0.9-2.1,1.3c-2.7,1.7-6.1,3.3-7.5,6.4
			c-0.6,1.3-0.2,3.3,1.3,3.8c4.2,1.4,9.1-0.6,13.4-2c2.1,0.1,3.7-0.5,5.7-1.7c0.7-0.4,1.2-1,1.7-1.6
			C787.7,169.9,786.7,160.3,779.4,158.9z"/>
		<path fill="#F79C1D" d="M318.4,658.5c-0.9-5.6-7-10.6-15.2-14.6c0.2,8.4-1.9,16.9-6.6,23.9c-5.5,8.2-14.6,14.1-24.4,14.9
			c-6.3,0.5-12.6-0.9-18.8-2.3c-6.8-1.6-13.6-3.2-20.3-4.7c-0.9,7-0.7,12.4,1,13.3c5.5,2.8,69.1,20.7,76,16.6
			C317,701.3,321.1,675,318.4,658.5z"/>
		<path fill="#FFDB24" d="M254.1,659.8c2.1-1,3.3-3.2,4.4-5.2c1.1-2,2.1-4.1,2.4-6.3c0.3-2.3-0.5-4.8-2.3-6
			c-1.6-1.1-3.8-1.1-5.6-0.3c-1.8,0.8-3.3,2.1-4.5,3.6c-1.8,2.1-3.3,4.6-4.5,7.1c-0.9,2.1-1.5,4.8,0.2,6.3c1,0.9,2.4,1.1,3.7,1.3
			C249.9,660.6,252.2,660.8,254.1,659.8z"/>
		<path fill="#FFDB24" d="M307.6,550.5c-11.8-4.4-31,5-32.4,18.4c-0.2,1.6,1.8,2,2.8,1.2c4.5-3.8,7.8-8,13.2-10.8
			c5-2.6,10.9-3.2,16.4-4C310.3,554.9,309.6,551.3,307.6,550.5z"/>
		<path fill="#FFDB24" d="M323.9,555.1c-1.9-2-4.8-3.2-7.6-2.7c-1.5,0.2-2.2,2.3-1.4,3.5c0.7,1.1,1.8,1.8,2.8,2.6
			c0.5,0.4,1.4,0.6,1.9,0.8c0.8,0.3,1.6,0.3,2.4,0.3C324.4,559.5,325.4,556.6,323.9,555.1z"/>
		<path fill="#EF4E3D" d="M1049.8,813.9c2.2-1.5,4.3-3.1,6.4-4.8c73.2-58,20.7-145.1-30.4-147.8c-1.6-0.1-3.2-0.1-4.7-0.1l-9.2,1.8
			c6.2-0.8,12.3,2.1,17.5,5.5c37.5,24.2,53.8,76.6,36.6,117.8C1062,796.2,1056.2,805.2,1049.8,813.9z"/>
		<path fill="#EF4E3D" d="M1112.5,912.9c-67.6-30.4-152.2-18.6-209,29c9.7,8.5,22.2,13.9,35.1,15.2l2.9,1.1
			c-1.7-0.9-2.7-1.3-2.7-1.3s98.1-52.5,158.9-23.5s67.7,73.2,30.4,99.5c-2.2,1.5-4.3,2.8-6.3,3.9c14.5-3.6,27.6-12.9,35.7-25.5
			c10.1-16,11.9-37,4.5-54.4C1153.1,936.1,1133.1,922.2,1112.5,912.9z"/>
		<path fill="#EF4E3D" d="M1173.8,1059.4c-8.5,7.2-17.9,13.5-28.2,17.6c-34.4,13.3-72.8-1.2-104-21.9
			c12.6,40.2,55.3,71.9,114.1,35.8c28.7-17.6,48.4-46.4,55.6-77.6C1201.8,1030.8,1189.1,1046.6,1173.8,1059.4z"/>
		<path fill="#EF4E3D" d="M1012,1045.3c-7.9-35.6-30.8-59.5-48.9-73.3l-1.8-0.2c20.3,28.9,32.8,64.1,30.5,99.3
			c-1.9,29.9-15.3,59.6-37.7,79.2c1.1,1.1,2.4,2,4,2.7C981.6,1162.8,1025.8,1107.5,1012,1045.3z"/>
		<path fill="#EF4E3D" d="M426.8,957.7c-19.8-15.1-48.4-17.7-74.1-17.3c-29.3,0.5-59.1,3.4-86.4,13.9
			c-27.4,10.5-52.4,29.5-65.4,55.8c-13,26.3-12,60.3,6.4,83.1c8.9,11,21.1,18.9,29.8,29.9c5.8,7.3,9.7,17.1,9.3,26.1
			c17.6-4.1,30.3-13,29.2-34.8c-1.4-27.6-71.9-11.1-37.3-92.6C268.3,950.8,375.2,945.9,426.8,957.7z"/>
		<path fill="#EF4E3D" d="M496.6,1220.8c0,31.8-107.8,6.9-37.3-84.3c56.3-72.9,91.5-136.1,103.3-158.5
			c-43.6,37.3-83.5,78.9-118.8,124.1c-11.4,14.6-22.4,29.7-30.6,46.3c-12.7,25.6-18.5,56.2-8.1,82.8c10.5,26.6,40.6,46.2,68,38.3
			c19.7-5.7,33.9-23.8,39.8-43.5c4.8-16.1,4.7-33.2,3-50C505.2,1183.1,496.6,1202.2,496.6,1220.8z"/>
		<path fill="#EF4E3D" d="M799.2,1085.4c-10.1-20.2-18.9-38.8-26-54.5c15.6,48.4,20.7,100.2,14.3,150.6
			c-4.2,33.5-15.7,69.7-44.8,86.9c-26.7,15.9-62.5,10.7-87.8-7.3c-14-10-25.2-23.2-33.9-38.1c1.5,41.2,39.3,81.5,124.3,65.6
			C833.8,1272,829.6,1146.2,799.2,1085.4z"/>
		<path fill="#CA342B" d="M209.8,1066.1c-2.8-2-7.3,0-8,3.2c-0.9,4.1-0.3,8.2,1.9,11.7c0.5,0.7,1.1,1.5,1.8,2.3
			c0.1,0.8,0.2,1.5,0.4,2.3c0.5,2.6,3.3,4.4,5.8,4.4c3.5,0,5.7-2.8,6-6C218.5,1077.2,215.4,1070.2,209.8,1066.1z"/>
		<path fill="#CA342B" d="M209.1,1025.9c-1.9-2.3-5.5-1.3-6.9,0.9c-2.5,3.8-3.5,9.2-1.8,13.5c0.2,1.5,0.6,3,1.2,4.4
			c1.7,3.7,7.1,3.1,8.9,0C214.2,1038.7,213.5,1031.2,209.1,1025.9z"/>
		<path fill="#CA342B" d="M228.8,985.6c-4.4-2.7-10.7-1.1-13,3.5c-1.1,2.1-1.4,4.8-0.7,7.1c0.4,1.2,1.3,2.7,2.4,3.6
			c1.2,3.3,4.2,4.8,7.8,4.3c2.8-0.4,5.2-2.3,6.7-4.6C235.3,994.7,233.6,988.5,228.8,985.6z"/>
		<path fill="#CA342B" d="M280.3,955.1c-0.4-1.9-2.4-3.4-4.3-3.3c-6.3,0.4-11.9,4.5-12.4,11c-0.1,1.7,1,2.6,2.4,2.7
			c1.7,2.5,4.7,2.8,7.6,2.3c2.5-0.4,4.9-2.7,6-4.9C280.8,960.5,280.8,957.8,280.3,955.1z"/>
		<path fill="#CA342B" d="M319.6,943.1c-0.7-4.3-5.9-6.1-9.6-5.4c-3.4,0.6-7.4,5.1-6.2,8.7c0.4,1.2,1.7,2.1,3,1.7
			c0.3-0.1,0.5-0.2,0.7-0.3c0.9,2.2,3.3,3.8,5.7,3.6C317.8,951.1,320.4,947.5,319.6,943.1z"/>
		<path fill="#CA342B" d="M252.1,1108.2c-0.7-0.4-1.4-0.7-2.1-0.8c-1.8-3.3-5.9-5.2-9.2-2.6c-2.1,1.7-3.5,4.7-3.3,7.5
			c0.2,1.8,0.9,3.8,2,5.4c0,0.4,0.1,0.8,0.2,1.2c1.2,2.8,3,4.7,6.1,5.4c2.5,0.5,5.4,0,7.5-1.5
			C258.5,1118.9,257.8,1111.3,252.1,1108.2z"/>
		<path fill="#CA342B" d="M286.6,728.5c-1.2-4.2-5.5-6.3-9.6-5.7c-1.7,0.3-2.7,2.1-2.8,3.6c-0.1,1.3,0.4,3.2,1.2,4.8
			c-0.5,1.9,0.1,4.1,1,5.7c1.1,2.1,4.2,3,6.2,1.6C286,736.3,287.8,732.6,286.6,728.5z"/>
		<path fill="#CA342B" d="M306.2,761.2c-3.2-2-7.8-1.6-10.2,1.5c-1.2,1.5-1.7,3.3-0.7,5.1c0.7,1.2,1.5,2.2,2.6,3
			c1.1,1.5,2.6,2.7,4.1,3.7c2.9,2,6.6-0.1,7.6-3.1C310.8,767.8,309.6,763.3,306.2,761.2z"/>
		<path fill="#CA342B" d="M337.9,787c0.4-1.5,0.1-3.2-0.7-4.6c-2.3-3.7-8.2-4.9-11.2-1.4c-3.4,3.8-1.7,8.8,2.1,11.5
			c2.9,2,8.7,1.6,10.4-1.8c0,0,0,0,0.1,0C339.7,789.6,339.2,787.5,337.9,787z"/>
		<path fill="#CA342B" d="M308.3,734l-0.6-9c-0.2-2.8-2-4.4-4.7-4.7c-3.5-0.4-6.8,2.2-7.5,5.6c-0.2,1.1-0.2,2.2,0.1,3.1
			c-0.6,1.5-0.8,3.1-0.2,4.5c1.3,3.4,3.9,5.8,7.7,5.8C305.7,739.3,308.5,736.9,308.3,734z"/>
		<path fill="#CA342B" d="M331.4,756.4c-2.4-4.2-7.8-7.3-12.7-6c-1.6,0.4-2.9,1.7-3.3,3.3c-0.5,1.8,0.1,3.2,1.2,4.6
			c0.9,1.1,1.8,2.2,2.7,3.3c0.7,0.9,2,1.2,3.1,1.1c1,0.5,2.1,0.9,3.2,1.2C330,764.8,333.7,760.5,331.4,756.4z"/>
		<path fill="#CA342B" d="M360.3,773.8c-3.9-2.8-8.8-4.3-13.6-3.5c-4.8,0.8-4.5,8.3,0,9.4c1.4,0.4,2.9,0.7,4.3,1.2
			c0.7,0.3,2,1.1,2.6,1.6c2.3,2,5.6,2.3,7.8,0C364.1,779.8,363.2,775.8,360.3,773.8z"/>
		<path fill="#CA342B" d="M381.4,793c-4.2-1.5-10.5-2.8-14.6-0.4c-3.3,1.9-2.3,6.6,1,7.5l0,0c1.6,0.6,3.4,0.5,5.1,0.9
			c0.3,0.1,0.6,0.1,0.9,0.2c0.7,1.2,1.7,2.1,3.1,2.5c3,0.7,5.9-0.3,7.5-3C386.3,797.5,384.5,794.1,381.4,793z"/>
		<path fill="#CA342B" d="M266,1099.9c-0.1,0-0.1,0.1,0,0.1S266.1,1099.9,266,1099.9z"/>
		<path fill="#CA342B" d="M263.8,1094.6c-0.6-4.3-4.2-7.5-8.1-9c-4.5-1.7-9.1-0.6-12.7,2.4c-2,1.7-2.1,5-0.9,7.2
			c2.9,5.1,9.9,10.2,16,7.9c1.1-0.4,1.9-1.2,2.4-2C262.9,1100.1,264.2,1097.6,263.8,1094.6z"/>
		<path fill="#CA342B" d="M236.8,1060.5c0.1-3.6-1.9-6.6-4.6-8.7c-2.2-1.6-5.4-0.3-6.7,1.8c-3.4,5.6-2.2,13,3.1,16.8
			c1.6,1.1,4.1-0.3,4.3-2.2C235.6,1066.6,236.7,1063.7,236.8,1060.5z"/>
		<path fill="#CA342B" d="M244.6,1007.7c-1.2-2.7-5-2.6-6.9-0.9c-2.4,2.2-4,5-4.8,8.1c-0.5,1.9-0.6,4.4,0.1,6.4
			c0,0.7,0.1,1.4,0.2,2.1c0.7,4,5.7,4.3,8.3,2.2C246.6,1021.4,247.1,1013.3,244.6,1007.7z"/>
		<path fill="#CA342B" d="M275.5,978c-1-1.5-2.7-2.3-4.4-1.8c-1.9,0.5-3.7,1.3-5.3,2.5c-1.1,0.8-2.3,1.9-3.1,3.2
			c-0.6,0.6-0.9,1.4-0.9,2.4c0,5.8,6.7,7.7,11.1,5.1C276.7,987.2,277.9,981.7,275.5,978z"/>
		<path fill="#CA342B" d="M327.1,957c-4.6-1.3-10.7,0.1-12.5,4.9c-1.3,0.9-2.2,2.9-1.6,4.5c1.9,5,6.7,5.2,11,3.3
			c3-1.3,5.3-4.4,6.1-7.5C330.6,959.9,329.3,957.6,327.1,957z"/>
		<path fill="#CA342B" d="M524.9,1043.7c-1.3-2.4-4.1-2.7-6.3-1.7c-5.6,2.6-9.2,8-9.4,14c-2,1.7-2.2,5,0.4,6.5
			c5.5,3,10.9,0.6,14.3-4.3C526.9,1053.9,527.5,1048.4,524.9,1043.7z"/>
		<path fill="#CA342B" d="M502.9,1031.3c-3.6,0.4-6.8,1.8-9,4.5c-1.8,0-3.6,1.3-4.3,3.1c-1.1,2.8-0.6,5.8,0.1,8.7
			c0.8,3.6,5,4.7,8,3.2c5.7-2.8,9.5-8.6,9.9-14.9C507.6,1033.6,505.3,1031.1,502.9,1031.3z"/>
		<path fill="#CA342B" d="M497.1,1085.3c-0.3-2.2-3-3.3-4.9-2.8c-3.2,0.8-5.7,2.7-7.5,5.4c-0.4,0-0.8,0-1.2,0.2
			c-8.4,2.7-6,15.7,2.8,15.8c4.1,0,7.4-2.2,9.6-5.6C498.3,1094.5,497.7,1089.5,497.1,1085.3z"/>
		<path fill="#CA342B" d="M466.2,1077.1c-0.8-1.7-3.3-2.2-4.9-1.3c-3.5,2.1-7,6.3-6.4,10.7c-0.2,0.1-0.5,0.3-0.7,0.4
			c-3,1.6-2,5.8,0.9,6.8c4.4,1.5,8.1-1.4,10.5-4.9C467.8,1085.3,467.9,1080.8,466.2,1077.1z"/>
		<path fill="#CA342B" d="M428.3,1125.5C428.3,1125.5,428.2,1125.5,428.3,1125.5c-11.5-7.8-13.1,36.1,3.2,13.6
			C434.6,1134.7,432.4,1128.3,428.3,1125.5z"/>
		<path fill="#CA342B" d="M454.5,1141.6c-5.4-2.4-13.8-0.5-10.7,7.3c-10.1-1-2.1,17,10,6.2C461.3,1148.4,458.9,1143.6,454.5,1141.6z
			"/>
		<path fill="#CA342B" d="M410.9,1187c-1.7-2.5-5-3.1-7.3-0.9c-0.8,0.8-1.5,1.9-2.1,3.1c-1.9,1.2-3.4,2.9-4.3,5.1
			c-2.1,5,2.4,9.8,7.1,10.3c4.1,0.5,7.8-2.7,9.2-6.3C415,1194.4,413.1,1190.3,410.9,1187z"/>
		<path fill="#CA342B" d="M439.6,1184.4c-2.3-1.9-5.9-1.9-7.5,1c-1.1,2-1.6,4.1-1.5,6.2c-0.8,3.9-0.2,7.9,0.4,11.8
			c0.6,3.9,6.2,4.8,8.6,2.3C445.1,1200,446.1,1189.8,439.6,1184.4z"/>
		<path fill="#CA342B" d="M471,1231.6c-1.5-8.7-14.5-13.4-20.6-6.5c-1.6,1.8-1.9,4.1-0.8,6.3c0.4,0.7,0.8,1.4,1.4,2.2
			c0.6,4.2,4.2,7.5,8.8,7.9C465.2,1242,472,1237.6,471,1231.6z"/>
		<path fill="#CA342B" d="M445.2,1246.6c-3.6-4.6-13.8-3.6-15.4,2.4c-0.5,1.9,0.2,3.7,1.3,5.2c-0.2,2.1,0.8,4.2,2.3,5.7
			c2.1,2,5.7,2.5,8.4,1.6c2.9-0.9,5-3.3,5.7-6.2C448.2,1252.1,447.2,1249.2,445.2,1246.6z"/>
		<path fill="#CA342B" d="M500.8,1206.6c-1.6-2.4-4.6-2.8-6.8-0.9c-2.6,2.4-4.7,6.6-5,10.7c-1.6,0.8-2.6,2.7-1.4,4.8
			c1.1,1.9,2.3,3.7,3.9,5.2c2,1.9,4.6,1.6,6.6,0C503.9,1221.8,504.8,1212.6,500.8,1206.6z"/>
		<path fill="#CA342B" d="M516.6,1217.7c-3.4-1.8-7.8-0.4-9.6,3c-1.9,3.7-0.8,8.8,3.7,9.8c1.3,0.3,2.4,0,3.2-0.7
			c2.4,0.3,4.7-1,5.9-3.2C521.5,1223.2,519.8,1219.4,516.6,1217.7z"/>
		<path fill="#CA342B" d="M1011.4,830.3c-8.6-3.2-19.1,0.8-22.3,9.7c-0.5,1.3,0.1,3,1.2,4c0.2,0.3,0.3,0.6,0.6,0.8
			c6.7,8.2,20.3,2,23.9-6.3C1016.2,835.1,1015.1,831.7,1011.4,830.3z"/>
		<path fill="#CA342B" d="M1050.4,806.7c-4-0.4-7.9,1.1-10.9,3.8c-0.7,0.6-1.3,1.4-1.9,2.1c-0.5,0.2-1,0.5-1.5,0.8
			c-3.5,1.9-3.5,7.4,0,9.3c8.2,4.6,18.2-2.8,18.7-11.5C1055.2,808.6,1052.8,807,1050.4,806.7z"/>
		<path fill="#CA342B" d="M1083.4,773.4c-1.8-2.4-4.6-2.9-7-0.9c-2,1.7-3.9,3.7-5.5,6c-0.4,0.1-0.8,0.3-1.2,0.6
			c-1.7,1.2-3.3,2.5-4.8,3.9c-2.6,2.3-2.1,7.4,1.2,9c5.6,2.7,12.2,2,16.5-2.7C1086.4,785.1,1086.7,778,1083.4,773.4z"/>
		<path fill="#CA342B" d="M1094.8,733c-1.8-3-5.7-2.6-7.5,0c-1.7,2.5-3.3,6.2-3.8,9.8c-0.5,1.7-0.4,3.5,0.2,5.2
			c0.4,1.7,1.3,3.2,2.7,4.4c0.5,0.4,1,0.5,1.6,0.5c2.3,1,5-0.3,6.3-2.2C1097.9,745.4,1098.1,738.4,1094.8,733z"/>
		<path fill="#CA342B" d="M1086.8,696.6c-1.5-2.4-4.9-2.9-6.9-0.9c-2.9,3-4.1,7-3.8,11.1c0.1,0.7,0.2,1.5,0.4,2.3
			c-0.1,0.3-0.1,0.5-0.2,0.8c-0.2,3.6,2,6.4,5.3,7.4c1.9,0.6,4.1-0.4,5.1-2.1C1090.3,709.5,1090.3,702.3,1086.8,696.6z"/>
		<path fill="#CA342B" d="M1004.3,808.2c-5.6-1.6-15,1.6-14.7,8.7c0.1,1.8,1.9,2.7,3.4,1.9c0,0,0.1,0.1,0.1,0.1
			c4.5,5.2,13.2-0.1,14.1-5.8C1007.4,811,1006.5,808.9,1004.3,808.2z"/>
		<path fill="#CA342B" d="M1048.9,786.5c-6-1.2-13.3,1.2-16.7,6.4c-1.5,0.8-2.1,2.7-1.7,4.4c-0.3,2.2,1.2,3.8,3.2,3.9
			c6.6,4,16.4-2.4,18.2-9.3C1052.6,789.7,1051.3,786.9,1048.9,786.5z"/>
		<path fill="#CA342B" d="M1071.9,745.9c-0.9-1.7-3.1-2.6-4.9-2c-5,1.6-8.1,6.6-7.2,11.3c-0.6,2-0.4,4.2,0.7,6.2
			c1.2,2.2,4.7,3.4,6.9,1.8C1073,759.2,1075.2,752.3,1071.9,745.9z"/>
		<path fill="#CA342B" d="M1068.4,710.5c-1.9-1.9-4.7-0.8-5.6,1.5c-1.2,3.2-1,8.3,1.6,11c0,0.3,0.1,0.5,0.2,0.8
			c0.7,1.9,2.9,3.2,4.8,1.9C1074.4,722.3,1071.9,714.2,1068.4,710.5z"/>
		<path fill="#CA342B" d="M996.8,935.4c-4.4-3.9-9.5-5.1-15.2-4.1c-4.2,0.7-11.2,4.8-9.9,9.9c0.3,1.1,1.4,1.6,2.4,1.4
			c0.3-0.1,0.5-0.1,0.8-0.2c0.4,1.6,1.5,3,3.6,3.6c5.8,1.7,12.4-0.3,17.3-3.5C998.2,941.1,999.1,937.5,996.8,935.4z"/>
		<path fill="#CA342B" d="M1000.9,903.5c-2.3-2.8-5.6-3.8-9.1-3.3c-1.7,0.3-3.1,1.2-4.3,2.4c-1.1,0.8-2.1,1.8-2.9,2.9
			c-2.6,3.6-1.7,8.4,1.1,11.4c5.2,5.8,15.4,3,17.5-4.1C1004.2,909.6,1003,906.1,1000.9,903.5z M993.8,909.9
			C993.8,909.9,993.8,909.9,993.8,909.9c0.1,0,0-0.1,0-0.1c0-0.1,0-0.1,0-0.1c0-0.2,0-0.3,0-0.5c0-0.1,0-0.1,0-0.2c0,0,0-0.1,0-0.1
			c0,0,0,0,0-0.1c0,0,0,0.1,0.1,0.1c0.1,0.1,0.1,0.2,0.1,0.2c0,0.1,0,0.1,0.1,0.2c0,0.1,0.1,0.2,0.1,0.3c0,0.1,0,0.2,0,0.3
			c0,0,0,0,0,0C994,909.9,993.9,909.9,993.8,909.9z"/>
		<path fill="#CA342B" d="M1052.5,916.9c-0.6-0.2-1.1-0.4-1.7-0.6c-0.5-0.6-1.1-1-1.9-1.2c-4.6-1-9.3-1.2-13.1,2
			c-3.9,3.3-4.6,9.2-1.1,13.1c2.8,3.3,7.4,4,11.4,3.1c4.4-1.1,7.3-5.3,9.5-8.9C1057.3,921.3,1055.4,918.1,1052.5,916.9z"/>
		<path fill="#CA342B" d="M1080.1,899.9c-4.9-5.6-14-8.2-20.7-4.4c-2.5,1.4-3.3,4.8-1.9,7.2c1.9,3.2,5.8,6.3,9.8,6.3
			c3.8,1.7,8.1,1,11.7-0.9C1082.2,906.4,1082.1,902.3,1080.1,899.9z"/>
		<path fill="#CA342B" d="M1118.9,937.1c-4.7-5-10.8-8.5-17.7-9.5c-3.3-0.5-6.8,2-5.7,5.7c0.6,2,1.6,3.5,3,4.7c0,0.1,0,0.2,0,0.3
			c0.6,9.5,12.5,12.3,19.3,7C1120.5,943.3,1121.5,939.8,1118.9,937.1z"/>
		<path fill="#CA342B" d="M1150.9,930.6c-5.1-2.3-10.9,0.2-12.6,5.5c-1.5,4.8,2.4,9.6,7.2,9.7c3.1,2.1,7.7,1.5,9.5-2.1
			C1157.4,939.3,1155.8,932.9,1150.9,930.6z"/>
		<path fill="#CA342B" d="M1154.3,983.7c-1.8-1.2-4.6-0.8-6,0.8c-4.1,4.5-6.2,10.7-4,16.6c1.1,2.9,4.9,4,6.9,1.5
			c3.5,0.1,6.6-3.3,7.7-7C1160.1,991,1158.2,986.2,1154.3,983.7z"/>
		<g>
			<path fill="#CA342B" d="M1139.4,1027.2c-1.7,1-3.4,2-5.1,3.1c-0.6,0.4-1.3,0.8-1.9,1.3c-0.4-0.1-0.9-0.2-1.2-0.2
				c-0.8-0.1-1.6-0.3-2.5-0.2c-2.3,0.1-4.2,1.8-4.2,4.2c0.1,6.6,7.5,8.4,12.7,6.8c5-1.6,8.4-5.9,8.8-11.1
				C1146.3,1027.6,1142.1,1025.5,1139.4,1027.2z"/>
			<path fill="#CA342B" d="M1131.2,1031.4c0.1,0,0.1,0,0.2,0C1130.8,1031.3,1130.9,1031.3,1131.2,1031.4z"/>
		</g>
		<path fill="#CA342B" d="M799.4,978.7c-5.6-3-13-3.5-18.1,0.7c-1.6,1.3-1.5,3-0.7,4.3c-0.1,0.6-0.2,1.3,0,2
			c0.8,4.2,5.7,5.6,9.4,5.4c3.9-0.2,7.7-2,10.4-4.9C802.4,984.1,802.3,980.3,799.4,978.7z"/>
		<path fill="#CA342B" d="M829.9,967c-1.1-4.9-5-8.2-10-8.6c-3.7-0.3-9.9,3.4-8.5,7.7c0.3,1,1.2,1.5,2.3,1.4
			c0.1,0.9,0.5,1.7,1.2,2.5c3.1,3.7,9.2,3.6,13.2,1.4C829.6,970.5,830.2,968.7,829.9,967z"/>
		<path fill="#CA342B" d="M866.7,987.6c-4-1.7-8.1-3.6-12-2.7c-0.6-0.1-1.2-0.2-1.9-0.1c-1.2,0.2-2.2,0.4-3.4,0.8
			c-3.8,1.4-5.5,6.1-2.4,9.2c5.4,5.5,15.4,5.2,20.6-0.3C869.4,992.7,869.4,988.8,866.7,987.6z"/>
		<path fill="#CA342B" d="M905.4,983.2c-0.9-0.7-2-2-3.3-2.8c-1.8-1.2-3.6-1.7-5.7-2c-4.1-0.4-8.4,2.9-8.8,7c-0.4,3.2,2,6.1,5.1,6.6
			c0.9,0.2,1.9,0.1,2.8-0.2c1.7,0.8,3.6,1.3,5.6,1.8c2.5,0.6,5.1-0.4,6.4-2.6C909.1,988,907.9,985,905.4,983.2z"/>
		<path fill="#CA342B" d="M932.6,1021.6c-0.8-2.2-2.1-4.1-3.9-5.6c-4-3.2-9-4.3-13.7-2c-2.5,1.2-3,4.1-2.7,6.5
			c0.4,2.8,1.9,5.2,3.8,7.2c1.8,1.9,5.1,3.5,7.7,2.7c0.4-0.1,0.8-0.3,1.2-0.6c1.6,0.9,3.7,0.8,5.1-0.6c0.2-0.2,0.3-0.3,0.5-0.5
			C932.7,1027.1,933.7,1024.4,932.6,1021.6z"/>
		<path fill="#CA342B" d="M963.8,1043.4c-0.8-5.6-4-11.1-8.8-14.2c-2.7-1.8-6.5,0-7.3,3c-0.8,2.9-0.4,5.7,0.9,8.4
			c0.3,0.6,1,1.4,1.7,1.9c-0.7,3.8,2,7.1,5.9,8.5c2,0.7,4.5-0.1,6-1.6C963.9,1047.7,964.1,1045.7,963.8,1043.4z"/>
		<path fill="#CA342B" d="M949.2,1076.1c-4.6-0.4-7.9,4.5-8,8.6c0,1.5,0.5,3,1.3,4.4c-0.1,2.3,1.5,4.5,3.8,5.2
			c5.4,1.6,10.2-4.2,10.6-9.1C957.2,1080.3,953.9,1076.5,949.2,1076.1z"/>
		<path fill="#CA342B" d="M973.1,1112c-0.1-4.2-5.4-5.4-7.6-2.1c-1.1,1.6-1.9,4.2-1.7,6.5c-0.3,1.9-0.1,3.9,1.6,5.3
			c1.4,1.2,3,1.4,4.7,0.6c2.2-1,2.9-3.3,3-5.5C973,1115.2,973.1,1113.6,973.1,1112z"/>
		<path fill="#CA342B" d="M636.4,1023.7c-3.2-6.5-10.8-12-18.3-11.6c-2.8,0.2-6,3-4.7,6.2c1.4,3.4,5.6,9.8,10.1,9.4
			c0.3,0.5,0.6,0.9,1,1.3c2.8,2.9,6.6,3.2,10.1,1.5C637.1,1029.2,637.5,1026,636.4,1023.7z"/>
		<path fill="#CA342B" d="M671.4,1038.6c-3.3-2.8-6.5-6.2-10.2-8.4c-3.7-2.2-8.3,2.2-5.9,5.9c1.4,2.2,2.9,4.2,4.9,5.8
			c0.4,2.9,4,4.2,6.6,4.7c2.2,0.4,4.3-0.2,5.4-2.2C673.2,1042.7,673,1040,671.4,1038.6z"/>
		<path fill="#CA342B" d="M684.8,1074.8c-1-1.3-2.9-2.2-4.4-2.9c-1-0.5-2.5-0.9-3.2-1.9c-2.4-3.7-8.1-1.4-7.1,3
			c0.7,2.9,1.9,6.4,3.9,9.2c0,1.9,1.1,3.7,2.8,4.9c3.4,2.2,7.9,0.7,9.7-2.7C688.5,1081,687,1077.5,684.8,1074.8z"/>
		<path fill="#CA342B" d="M721.4,1088.6c-2-2.4-5.3-4-8.4-3.7c-2.8,0.2-4.4,2.4-3.9,5.1c0.6,3.4,3.2,6.8,6.5,8.3
			c0.1,0.2,0.3,0.3,0.4,0.4c1.6,1.3,3.5,1.8,5.4,0.7C725.7,1096.9,724,1091.7,721.4,1088.6z"/>
		<path fill="#CA342B" d="M720.2,1122.3c-2.5-0.8-5.5,0.9-6.1,3.5c-0.8,3.7-0.6,10,2.4,13.3c0.5,1.1,1.2,2,2,3
			c2.5,2.7,6.7,1.7,8.5-1.1C731.4,1134.2,727.7,1124.7,720.2,1122.3z"/>
		<path fill="#CA342B" d="M752.5,1157.5c-3.7-1.6-8.2,1-7.1,5.4c0.7,2.6,1.4,5.2,2.3,7.8c0,0.1,0.1,0.2,0.1,0.3
			c-0.6,0.6-1,1.3-1.3,2.3c-1.1,4,2.4,6.4,5.7,7.4c2.4,0.7,5.4-0.4,6.6-2.7C762.3,1171.1,760,1160.7,752.5,1157.5z"/>
		<path fill="#CA342B" d="M740.5,1198.4c-1.4-1.2-3.3-1.6-5-0.6c-2.5,1.5-4.6,3.7-5.9,6.3c-0.3,0.1-0.5,0.2-0.8,0.3
			c-0.6,0.3-1.3,1-1.9,1.2c-3.3,1.3-4.5,4.3-3.1,7.6c1.4,3.2,5.3,4.3,8.5,4.4c3.1,0.2,6-1.3,8.3-3.2
			C745.4,1210.5,744.9,1202.3,740.5,1198.4z"/>
		<path fill="#CA342B" d="M719,1224.8c-5.8-5.1-15.6-3.6-18.5,3.9c-0.8,2.2,0.9,5.4,3.3,5.8c0.7,0.1,1.4,0.2,2.1,0.4
			c2.3,1.4,5.2,1.5,7.9,0.7c0.3,0,0.6,0,0.9-0.1c0.7-0.1,1.1-0.5,1.4-0.9c1.1-0.6,2.1-1.4,2.9-2.3
			C720.8,1230.3,721.3,1226.8,719,1224.8z"/>
		<path fill="#442C29" d="M491,529c10.9-14.9,78-13,99-4s0,84-49,82S480,544,491,529z"/>
		<path fill="#442C29" d="M799,398.7c-28.7,23.8-58.7,46.5-90.4,65.9c-15.8,9.6-32,18.5-48.6,26.7c-8.6,4.2-17.2,8.2-25.9,12.1
			c-8.6,3.9-17.7,7-25.9,11.7c-2.1,1.2-0.6,4,1.5,3.7c9.3-1.4,18.4-5.1,27.2-8.4c8.7-3.2,17.2-6.9,25.7-10.6
			c17.5-7.8,34.4-16.6,51-26.3c32.9-19.4,63.6-41.9,90.8-69.1C808,400.7,802.7,395.6,799,398.7z"/>
		<path fill="#442C29" d="M473.3,555.8c-5.3,1.7-10.1,4.8-15.2,7.1c-6.3,3-12.6,5.9-19,8.5c-11.7,4.7-23.8,8.3-35.8,12.3
			c-3.5,1.2-2.1,6.2,1.5,5.5c12.7-2.4,24.8-7,36.7-12c6.1-2.6,12-5.4,17.9-8.5c5.3-2.7,11.2-5.7,15.7-9.8
			C476.5,557.7,475.1,555.2,473.3,555.8z"/>
		<path fill="#442C29" d="M638.5,633.5c-3.3,2.9-8.4,5.9-12.8,6.4c-5.6,0.6-9.4-3-13.4-6.2c-1.5-1.2-3.6-0.1-3.2,1.9
			c1.3,7.1,8.9,11.7,15.5,12.8c9,1.5,16.7-3,19.7-11.5C645.4,633.4,640.8,631.4,638.5,633.5z"/>
		<path fill="#F48F73" d="M761.3,599.3c-2.9-4.3-7.1-7.3-12.3-8.3c-5.3-0.9-12.1,0.4-15.1,5.4c-0.9,1.4-1.3,3.2-1.2,4.9
			c-0.2,1.4-0.1,2.9,0.2,4.2c1.5,5.9,6.3,8.7,12.1,9.2c6.1,0.6,11.4-4,15.4-8C762.2,604.9,762.9,601.6,761.3,599.3z"/>
		<path fill="#F48F73" d="M508.3,614.3c-2.9-4.3-7.1-7.3-12.3-8.3c-5.3-0.9-12.1,0.4-15.1,5.4c-0.9,1.4-1.3,3.2-1.2,4.9
			c-0.2,1.4-0.1,2.9,0.2,4.2c1.5,5.9,6.3,8.7,12.1,9.2c6.1,0.6,11.4-4,15.4-8C509.2,619.9,509.9,616.6,508.3,614.3z"/>
		<path fill="#EF4E3D" d="M815.4,794.6c-13.7-16.6-25.8-34.7-33.6-54.8c-3.8-10-6.5-20.4-8.2-30.9c-0.9-5.4-1.6-10.9-2-16.3
			c-0.4-5,0.3-10.7-1.7-15.4c-0.6-1.4-2.6-1.1-3.3,0c-2.4,3.8-2.4,9.4-2.6,13.8c-0.3,5.8-0.3,11.8,0.3,17.6
			c1.1,11.6,3.6,23,7.2,34.1c7.2,22.2,19.4,43.2,37.4,58.4C813.5,804.8,819.2,799.1,815.4,794.6z"/>
		<path fill="#EF4E3D" d="M854.8,817.3c-5.8-1.7-11.8-1.8-17.7-2.2c-3.2-0.2-4,5.1-0.8,5.7c5.9,1,11.7,2.3,17.8,2
			C857.1,822.6,857.9,818.2,854.8,817.3z"/>
		<path fill="#EF4E3D" d="M952.1,889.4c-11.5,1.5-21.7,5.4-31.7,11.2c-4.6,2.7-9,5.7-13.2,9c-4.3,3.4-9.6,7.2-11.9,12.3
			c-0.7,1.5,0.5,3.8,2.4,3.1c4.2-1.6,7.9-4.8,11.5-7.4c4.5-3.2,9.3-6,14.2-8.5c9.4-4.9,19.7-8.5,29.7-12.1
			C956.9,895.7,956.7,888.8,952.1,889.4z"/>
		<path fill="#EF4E3D" d="M984,880.8c-3.4,0-6.6,0.3-10,0.6c-3.2,0.3-3.3,5.4,0,5.1c3.6-0.3,7-0.7,10.6-1.5
			C987,884.6,986.4,880.8,984,880.8z"/>
		<path fill="#EF4E3D" d="M750.1,1029.3c-1.4-3.3-7-0.9-5.8,2.5c8.9,26.2,13.3,53.5,19.4,80.4c1,4.6,8.2,3.5,8.1-1.1
			C770.9,1082.5,761.4,1055.2,750.1,1029.3z"/>
		<path fill="#EF4E3D" d="M551,941c-8.2,8.8-15,18.7-22.2,28.3c-7.6,10.2-15.6,20.1-23.1,30.3c-1.9,2.5,2,5,4.1,3.2
			c9.3-8,17.7-16.8,25.7-26c8.4-9.5,16.5-19.3,22.3-30.6C560.1,942,554.5,937.2,551,941z"/>
		<path fill="#EF4E3D" d="M568.9,917.7c-1.2,2.1-2.3,4.1-2.9,6.4c-0.4,1.7,0.5,3.6,2.3,4c1.9,0.5,3.4-0.6,4-2.3
			c0.5-1.2,0.8-2.2,1-3.4c0.1-1.1,0.3-2.3,0.4-3.4C574.1,916.4,570.1,915.7,568.9,917.7z"/>
		<path fill="#EF4E3D" d="M409.7,935.1c-17.9-10.4-40.4-12.2-60.6-9.7c-3.3,0.4-3.5,5.6,0,5.3c20.5-1.5,39,3.5,58.3,10
			C410.6,941.9,412.6,936.9,409.7,935.1z"/>
		<path fill="#EF4E3D" d="M439.2,944.1c-2.1-1.2-4.2-1.9-6.5-2.6c-1.4-0.4-3,0.5-3.4,1.9c-0.4,1.5,0.5,2.9,1.9,3.4
			c1,0.4,2,0.7,3,1.1c1.2,0.4,2.5,0.5,3.8,0.7C440.4,948.9,441.1,945.2,439.2,944.1z"/>
		<path fill="#EF4E3D" d="M474.8,758.1c-7.1,5.5-12.8,12.4-19.7,18.2c-7.9,6.5-16.9,11.6-26.5,15.3c-1.8,0.7-1.1,3.3,0.8,2.9
			c9.7-2,19.1-5.4,27.8-10.1c9-4.9,18.4-11.2,23.2-20.5C482.2,760.5,478.3,755.4,474.8,758.1z"/>
		<path fill="#EF4E3D" d="M485.1,742.5c-0.5,1.1-0.9,2.2-1.5,3.2c-0.7,1.2-0.9,2.3-1.2,3.6c-0.7,3.4,4,4.6,5.2,1.4
			c0.5-1.3,0.8-2.4,0.9-3.7c0-1.2,0.3-2.3,0.5-3.5C489.3,741,486.1,740.1,485.1,742.5z"/>
		<path fill="#F48F73" d="M446.1,385.2c-0.3-2.1-2.1-3.4-4.2-2.4c-7.2,3.7-11,12.9-14.3,19.8c-3.9,8-7.1,16.4-9.5,25.1
			c-5,18.1-7.3,36.4-3.5,54.9c1.1,5.7,10.5,5.8,11.6,0c2.9-16.2,4.5-32.6,7.9-48.7c1.7-8.1,3.8-16.1,6.1-24.1
			C442.4,402.2,447.2,393.3,446.1,385.2z"/>
		<path fill="#F48F73" d="M424,504.3c-1.1-2.2-4.8-2.2-5.9,0c-2.3,4.5-2,11-0.7,15.7c1,3.6,6.4,3.6,7.3,0
			C425.9,515.2,426.2,508.8,424,504.3z"/>
		<path fill="#F48F73" d="M189.6,965.8c-5.4,4.6-9.4,11.6-12.8,17.7c-3.9,6.9-6.5,14.8-8.6,22.4c-4.1,14.8-6.1,32.9,0.1,47.3
			c2,4.5,8.1,1.7,8.4-2.3c0.5-7-0.2-14-0.2-21c0-7.1,0.7-14.2,2-21.1c1.3-6.9,3.4-13.7,5.9-20.2c2.7-6.9,6.6-13.4,9.3-20.3
			C194.9,965.7,191.4,964.3,189.6,965.8z"/>
		<path fill="#F48F73" d="M181.1,1078.4c-0.4-3.1-1.7-5.8-2.9-8.7c-1.1-2.6-5.4-0.7-4.5,1.9c0.9,2.9,1.8,5.8,3.5,8.4
			C178.5,1082.3,181.4,1080.8,181.1,1078.4z"/>
		<path fill="#F48F73" d="M494,1291.1c-10.9,4-21.9,8.4-33.5,9.8c-11.8,1.4-23.7-0.1-34.9-4c-2.2-0.7-3.6,2.7-1.6,3.7
			c21.9,10.5,52.7,13.3,73.2-1.7C500.9,1296.3,498.9,1289.3,494,1291.1z"/>
		<path fill="#F48F73" d="M513.9,1272.7c-0.7,1-1.5,2-2.2,3.1c-0.8,1.1-1.4,2.5-2.1,3.8c-1.7,3.2,2.9,5.9,4.9,2.8
			c0.7-1.1,1.3-2.1,2-3.2c0.7-1.2,1.2-2.7,1.7-4C519.4,1272.3,515.8,1270.1,513.9,1272.7z"/>
		<path fill="#F48F73" d="M642.6,1196c-13.3,1.5-19.7,19-11.6,29.2c2.3,2.9,6.4-0.3,5.7-3.3c-2.1-8.9,0.4-16.4,7.4-22.3
			C645.5,1198.4,644.4,1195.8,642.6,1196z"/>
		<path fill="#F48F73" d="M646,1242.2c-1.4-0.9-2.8-2.1-3.2-3.7c-0.5-2.2-4.2-1.8-4.1,0.5c0.3,3.5,2.6,6.6,6.3,6.6
			C647,1245.7,647.5,1243.2,646,1242.2z"/>
		<path fill="#F48F73" d="M962,1000.2c-6-12.8-16.6-23.8-25.3-34.8c-1.5-2-4.6,0.6-3.4,2.6c7.4,12.1,14,25.7,23.9,35.9
			C959.7,1006.5,963.4,1003.2,962,1000.2z"/>
		<path fill="#F48F73" d="M970.8,1024.5c-0.4-1-0.8-2-1.3-2.9c-0.5-0.9-1.1-1.8-1.6-2.7c-1.4-2.4-5.2-0.2-3.7,2.2
			c1.1,1.8,2.2,3.6,3.6,5.2C968.8,1027.7,971.5,1026.2,970.8,1024.5z"/>
		<path fill="#F48F73" d="M1078.5,983.8c-6.2-1.1-13.2,3.4-17.7,7.3c-5.2,4.6-10.2,10.5-9.9,17.9c0.1,3.6,4.5,5.6,7.1,3
			c3.7-3.7,5.9-8.5,9.2-12.5c1.7-2,3.6-3.9,5.6-5.6c2.3-1.9,5-3.2,6.9-5.5C1080.8,986.9,1080.8,984.2,1078.5,983.8z"/>
		<path fill="#F48F73" d="M1048.3,1022.3c-0.5,2.6-1.2,5.1-0.9,7.7c0.3,3,3.9,3.4,5.1,0.7c1-2.4,1.1-5.1,1.3-7.7
			C1054.1,1019.8,1048.9,1019.2,1048.3,1022.3z"/>
		<path fill="#F48F73" d="M1007.7,675.4c-10.8-7.5-25.9,9.1-23.7,19.8c0.6,3.1,5,4.2,7.1,1.9c2.3-2.6,3.8-5.5,6.8-7.5
			c3.5-2.3,7.8-2.7,10.9-5.7C1011.6,681.3,1010.5,677.3,1007.7,675.4z"/>
		<path fill="#F48F73" d="M1021.2,673c-0.5-0.3-1-0.5-1.6-0.7c-0.6-0.2-1.3-0.1-1.9-0.1c-1.1,0-2.2,0.4-3.3,0.7
			c-2.1,0.5-2.1,3.7,0,4.2c1.1,0.3,2.2,0.6,3.3,0.7c0.6,0,1.3,0.1,1.9-0.1c0.6-0.2,1.1-0.4,1.6-0.7
			C1022.7,676.3,1022.7,673.7,1021.2,673z"/>
		<path fill="#F48F73" d="M301.9,813c-9.6-9.9-18.6-21.1-25.8-32.8c-3.6-5.9-6.8-12-9.5-18.3c-2.7-6.2-4.3-12.9-7.1-19.1
			c-1.1-2.4-4.7-1.1-4.7,1.3c-0.3,13.8,6.4,29.1,12.9,41c7.4,13.6,17.2,24.6,29.8,33.5C301,821.1,304.7,815.9,301.9,813z"/>
		<path fill="#F48F73" d="M325,831.2c-1.8-0.1-3.4-0.7-5.1-1c-2.1-0.3-4-1.3-5.5-2.6c-1.9-1.6-4.2,0.8-2.7,2.7
			c1.7,2.1,3.8,3.6,6.2,4.7c2.5,1.1,5,0.8,7.6,0C327.6,834.3,327.2,831.3,325,831.2z"/>
		<path fill="#5A3E3B" d="M528.9,532.7c-9.3-1.5-20.5,1.8-28.2,7.2c-2.4,1.6-0.9,5,1.9,4.5c4.1-0.7,8.1-1.8,12.2-2.6
			c4.7-0.9,9.4-1.1,14-2.4C532,538.5,532.5,533.2,528.9,532.7z"/>
		<path fill="#5A3E3B" d="M546.1,535c-1.1-0.5-2-0.9-3.2-1.1c-1.3-0.2-2.6-0.2-3.9-0.3c-2.6-0.1-2.9,3.6-0.6,4.3
			c2.2,0.7,4.2,1.3,6.6,1.1c1-0.1,1.8-0.6,2.1-1.6C547.4,536.6,547,535.4,546.1,535z"/>
		<path fill="#442C29" d="M694.3,538.1c-8.2-0.8-16.1,2.1-22.5,7.1c-5.6,4.4-11.6,12.6-8.2,19.9c0.7,1.5,3.1,2.5,4.7,1.9
			c4.1-1.7,7.1-5.6,10.8-8.1c3.3-2.2,7.6-3.5,11.5-2.9c10.6,1.5,11.8,12.2,16.8,19.6c3.4,5,10.3,5.2,13.7,0
			C732,558.5,710.2,539.6,694.3,538.1z"/>
	</g>
	<circle fill="#D0ECF4" cx="1117" cy="343" r="40"/>
	<circle fill="#D0ECF4" cx="1141" cy="255" r="20"/>
	<circle fill="#D0ECF4" cx="427" cy="133" r="36"/>
	<circle fill="#D0ECF4" cx="88" cy="518" r="41"/>
	<circle fill="#D0ECF4" cx="325" cy="193" r="16"/>
	<circle fill="#D0ECF4" cx="186" cy="848" r="27"/>
	<circle fill="#D0ECF4" cx="139" cy="915" r="12"/>
	<circle fill="#D0ECF4" cx="279" cy="1279" r="44"/>
	<circle fill="#D0ECF4" cx="327" cy="1197" r="20"/>
	<circle fill="#D0ECF4" cx="623" cy="1121" r="18"/>
	<circle fill="#D0ECF4" cx="923" cy="1259" r="32"/>
	<circle fill="#D0ECF4" cx="983" cy="1197" r="14"/>
	<circle fill="#D0ECF4" cx="1281" cy="1009" r="24"/>
	<circle fill="#D0ECF4" cx="1241" cy="919" r="16"/>
	<circle fill="#D0ECF4" cx="1293" cy="691" r="36"/>
	<circle fill="#D0ECF4" cx="1205" cy="651" r="12"/>
	<circle fill="#D0ECF4" cx="927" cy="675" r="12"/>
	<circle fill="#D0ECF4" cx="1265" cy="479" r="22"/>
	<circle fill="#D0ECF4" cx="883" cy="81" r="26"/>
	<circle fill="#D0ECF4" cx="121" cy="215" r="18"/>
	<circle fill="#D0ECF4" cx="1327" cy="95" r="16"/>
	<circle fill="#D0ECF4" cx="95" cy="1287" r="20"/>
	<path fill="#7AC7D2" d="M298.1,333.4c-10.7,0.3-21.1-2.6-27.5-11.5c-3.9-5.5-7.8-10.5-14.2-13.1c-6.9-2.8-14.4-0.8-20.3,3.3
		c-4.7,3.2-8.4,7.6-13.4,10.4c-4.2,2.4-9,3.2-13.8,3.4c-4.8,0.1-9.8-0.8-14.1-2.8c-5.1-2.3-8.3-5.8-12.2-9.6c-3.1-3-8.9-3.6-11.9,0
		c-10.3,12.1-24.9,20.7-34,33.8c-2.8,4,2.4,7.7,6,6c7-3.1,13.1-8.6,19.2-13.1c4.2-3.1,8.3-6.4,12.6-9.5c6.7,6.8,16.8,11.2,25.5,12.8
		c12.9,2.4,27-0.2,37.5-8.3c2.6-2,5.1-4.2,7.7-6.4c0.9-0.7,1.9-1.3,2.9-1.9c0.5-0.3,1-0.4,1.3-0.4c1.9,1.1,3.2,3.4,4.4,5.1
		c2.1,3,4.2,6,6.9,8.5c10.8,10.6,27.6,14.3,41.1,6.8C308,343.5,305.3,333.3,298.1,333.4z"/>
	<path fill="#7AC7D2" d="M288.7,389.5c-3.1,4.3-10.8,3.3-15.2,2.3c-8.1-1.9-15.4-6.3-23.7-8c-17.4-3.5-33.2,8.3-44.9,19.7
		c-2.9,2.8,0.8,7.6,4.3,5.6c7.8-4.5,15.4-9.3,24.2-11.5c8.8-2.3,17,1.8,24.7,5.5c8,3.7,15.6,6.3,24.5,5.1
		c8.1-1.1,14.3-6.4,17.3-13.8C302.8,387.2,292.5,384.3,288.7,389.5z"/>
	<path fill="#7AC7D2" d="M1213.8,121.5c-11.1,1.7-21.8,4.1-33,1.7c-11.2-2.4-20.7-8.5-27.7-17.5c-3.4-4.3-10.4-3.3-13.9,0
		c-10.5,9.7-24.2,13.8-38.2,13.5c-7.2-0.2-14.2-1.9-20.8-4.6c-6.7-2.6-12.1-7.6-17.9-11.6c-2.9-2-7.3-1.2-9.6,1.2
		c-11.1,11.6-24.3,21.5-36,32.6c-2.4,2.2,0.7,5.9,3.4,4.4c12.2-6.7,23.8-14.7,36-21.3c11.2,11.7,29.4,17.1,44.9,18
		c15.5,0.9,31.2-3.4,44-11.9c8.8,8.3,20.1,14,32,16.5c14.8,3.2,32.5,2,43.9-9.1C1226.2,128,1220.4,120.4,1213.8,121.5z"/>
	<path fill="#7AC7D2" d="M1208.5,176.1c-8.4,0.1-17-0.4-25.1-2.6c-4-1.1-7.9-2.7-11.6-4.7c-4.2-2.2-7.5-5.2-12.2-6.5
		c-6.5-1.7-12.6,1.4-17.3,5.7c-2.2,2.1-4,4.5-6.1,6.7c-1.8,1.9-5,5.5-7.7,6.2c-1.8,0.5-1.9,3.4,0,3.7c2.8,0.5,4.6,1.1,7.5,0.3
		c2.8-0.8,5.2-2.7,7.5-4.4c2.4-1.7,4.7-3.5,7.2-5c3-1.7,4-0.2,6.4,1.8c14.6,12,34.5,19.2,53,12
		C1217.1,186.8,1216.6,176.1,1208.5,176.1z"/>
	<path fill="#7AC7D2" d="M1290.9,614.7c-17.3-0.5-33.5-6.1-41.5-22.5c-2.5-5.1-10.2-5.8-13.9-1.8c-9.6,10.3-23.8,16.1-37.9,14
		c-14.6-2.2-25.6-11.6-33.1-23.8c-2.2-3.6-7.2-4.3-10.3-1.3c-6,5.9-12.3,11.5-18.5,17.2c-5.4,5-13.3,10.4-16.5,17.1
		c-0.8,1.6,0.5,3.4,2.3,3c7.3-1.7,14.1-8.3,20.1-12.5c4.9-3.5,9.8-7.1,14.8-10.5c8,13.3,22,22.9,37.1,26.2
		c15.9,3.5,32.8-0.4,46.1-9.6c12.4,16.7,35.5,26.2,55.1,17.7C1301.2,624.8,1297.3,614.8,1290.9,614.7z"/>
	<path fill="#7AC7D2" d="M1299.9,559.9c-7.5-0.6-13.9-0.9-21.1-3.4c-7.3-2.6-14.1-6-21.7-7.6c-7-1.5-14.1-0.5-20.6,2.4
		c-3.1,1.4-5.6,4-7.8,6.4c-2.6,3-6.2,7.5-10.8,5.4c-1.8-0.8-3.5,1.2-2.1,2.7c4.3,4.8,10.5,3,15.3-0.1c3.6-2.3,6.2-5,10.5-6
		c3.9-1,8.3,0.5,12,1.5c15.1,3.9,34.9,20.4,49.9,7.6C1307.3,565.6,1304,560.3,1299.9,559.9z"/>
	<path fill="#7AC7D2" d="M1278.6,1204.7c-6.1,3.8-13.8,7-21.1,5.4c-7.9-1.7-12.6-8.9-13.8-16.4c-1.1-7-11.4-9.2-15.9-4.2
		c-10.6,11.7-25.3,17.9-41.1,17.2c-16-0.7-29.3-10.6-38.9-22.7c-3.2-4-10.4-2.6-12.6,1.6c-10.3,20-24.3,38.3-38.7,55.5
		c-2.8,3.4,1.5,7.9,4.9,4.9c14.9-13.2,27.7-28,40.2-43.2c10.9,12.5,27,19.8,43.5,21.9c15.9,1.9,32.3-3.1,45.4-12.4
		c4.8,7.3,12.1,12.8,20.5,15.5c13.5,4.4,30.3-0.9,36.7-13.8C1290.8,1208.2,1284.8,1201,1278.6,1204.7z"/>
	<path fill="#7AC7D2" d="M1277.6,1267.9c-7.5,0.5-15.6,2.4-22.8-0.8c-7.1-3.1-11-9.3-13.4-16.4c-1.8-5.5-8-6.9-12.2-3.2
		c-11.1,9.6-23.2,18.1-34.8,27.2c-3.5,2.8,1,8.1,4.7,6c10.2-5.6,20.2-11.7,30.5-17.3c3,7.3,8.4,13.5,15.1,18c11.1,7.4,28,8.3,38-1.2
		C1287.2,1276.1,1284,1267.4,1277.6,1267.9z"/>
	<path fill="#7AC7D2" d="M134.7,1025.7c-6.7,2.5-15.2,2.9-22.3,1.9c-8.6-1.2-14.3-7.1-22-10.5c-7.6-3.4-15.3-2.5-22.4,1.4
		c-6.1,3.4-13,9.9-15.4,16.6c-0.7,1.9,1.6,3.2,3.2,2.4c6.7-3.2,11.2-9.4,18.6-11.8c8.1-2.6,14.3,4.5,20.1,9
		c6.4,4.9,14.3,7.2,22.3,7.9c8.2,0.7,15.6-2.9,21.9-7.7C142.8,1031.8,140.6,1023.5,134.7,1025.7z"/>
	<path fill="#7AC7D2" d="M742.9,1329.7c-8.8,3.1-17.7-7.1-24.4-11.3c-11.1-6.9-22.3-4.8-32.6,2.3c-10,6.8-20,10.9-32.3,9.9
		c-9.8-0.8-19.7-7.1-25.2-15.1c-2.6-3.8-7.5-3.7-10,0c-7,10-16,18.8-23.8,28.2c-2.3,2.7,1.2,6.2,3.9,3.9
		c7.9-6.7,15.3-14.3,23.4-20.8c14.1,18.6,40.6,22.5,61.7,13c5.7-2.6,10.8-7,16.7-9.1c5.3-1.9,10.4,2.6,14.3,5.7
		c9.7,7.6,24.1,15,34.5,4.1C753.3,1336.1,749.2,1327.5,742.9,1329.7z"/>
	<path fill="#7AC7D2" d="M765.7,1359.1c-0.8,3.3-6.2,3.3-8.9,2.8c-5.9-0.9-11.2-4.8-16.9-6.5c-12.3-3.6-25.5,4.2-33.4,13.1
		c-2.1,2.4,0.5,5.5,3.3,4.3c6.9-3,12.9-7.3,20.7-7.2c7,0.2,13.7,6.5,20,9c10.5,4.1,25.9-0.9,25.6-14.1
		C776,1354.7,767.2,1353.2,765.7,1359.1z"/>
	<path fill="#7AC7D2" d="M227.6,607.6c-10.2-0.3-20.8-1.9-30.2-6.1c-9.8-4.4-17.5-11.1-24.2-19.4c-2-2.4-6.1-2.1-8.2,0
		c-7.6,7.6-16.6,14.7-22.9,23.4c-2,2.7,1.7,5.6,4.3,4.3c7.7-4,14.5-9.9,21.4-15.3c13.9,18.2,39,29.1,61.3,23.9
		C235.3,617,233.7,607.8,227.6,607.6z"/>
	<path fill="#7AC7D2" d="M639.9,51.2c-10,4-22.7,3.6-31.2-3.5c-3-2.5-8.5-3.7-11.3,0c-9.6,12.4-23.9,18.9-39.5,17.7
		c-15.5-1.2-27-11.9-34.6-24.5c-2.5-4.1-8.1-3.8-10.6,0c-4.9,7.3-11,13.4-17.5,19.3c-3,2.7-6.1,5.1-9.3,7.6c-3.2,2.6-7,4.6-9.5,7.9
		c-0.9,1.2,0.3,3.2,1.8,3.1c7.8-0.8,16-7.4,22.2-11.8c5.6-4,10.7-8.4,15.8-13c8.4,13.2,23.1,22.6,38.4,25.3
		c17.8,3.1,36.6-3,49.6-15.3c13.1,7.6,29.2,7.1,41.7-2.7C650.4,57.5,645.3,49,639.9,51.2z"/>
	<path fill="#7AC7D2" d="M557.9,102.2c-7,3.3-15.4,4.3-23,2.9c-3.9-0.7-7.5-2.2-10.9-4.3c-3.6-2.1-6.4-5.5-10.3-7
		c-5.7-2.2-11.3,0.1-15.5,4.2c-4.5,4.4-7,11.7-13.3,13.9c-2.5,0.9-1.5,4.4,1.1,3.9c5.9-1.2,9.8-5.9,13.8-10.1c1.8-1.8,4-4.3,6.7-4.5
		c3.6-0.3,7.5,4.8,10,6.9c12.8,10.7,32.3,11.9,45.9,1.9C567.2,106.6,563.3,99.7,557.9,102.2z"/>
</g>
</svg>
